<svg height="24" viewBox="0 0 24 24" width="24" xmlns="http://www.w3.org/2000/svg">
    <g data-name="Group 24239" id="Group_24239" transform="translate(-20379 -6143)">
        <rect data-name="Rectangle 13030" fill="#abaab3" height="24" id="Rectangle_13030"
            opacity="0" transform="translate(20379 6143)" width="24" />
        <path
            d="M92.973,16a3.343,3.343,0,0,1-3.15-3.5V5a4.525,4.525,0,1,1,9,0v9h-.9V5a3.62,3.62,0,1,0-7.2,0v7.5a2.263,2.263,0,1,0,4.5,0V5a.9.9,0,1,0-1.8,0v8h-.9V5a1.81,1.81,0,1,1,3.6,0v7.5a3.343,3.343,0,0,1-3.15,3.5Z"
            fill="#abaab3" id="attached" transform="translate(20297.178 6147)" />
    </g>
</svg>
