<svg height="24" viewBox="0 0 24 24" width="24" xmlns="http://www.w3.org/2000/svg">
    <g data-name="Group 24632" id="Group_24632" transform="translate(-244 -280)">
        <g data-name="Rectangle 13287" fill="#392694" id="Rectangle_13287" opacity="0"
            stroke="#707070" stroke-width="1" transform="translate(244 280)">
            <rect height="24" stroke="none" width="24" />
            <rect fill="none" height="23" width="23" x="0.5" y="0.5" />
        </g>
        <g data-name="chat-bubble (1)" id="chat-bubble_1_" transform="translate(246.001 281.997)">
            <path d="M120.834,329.539a.625.625,0,1,1-.884,0,.625.625,0,0,1,.884,0" fill="#392694"
                id="path-1_59_" transform="translate(-114.603 -315.146)" />
            <path d="M180.717,329.539a.625.625,0,1,1-.884,0,.625.625,0,0,1,.884,0" fill="#392694"
                id="path-1_58_" transform="translate(-171.903 -315.146)" />
            <path d="M240.6,329.539a.625.625,0,1,1-.884,0,.625.625,0,0,1,.884,0" fill="#392694"
                id="path-1_57_" transform="translate(-229.201 -315.146)" />
            <path
                d="M18.663,11.533a.641.641,0,0,1-.019-.859A6.109,6.109,0,0,0,20,6.878C20,3.087,16.354,0,11.874,0S3.75,3.087,3.75,6.878c0,.152.025.3.038.446A6.708,6.708,0,0,0,0,13.128a6.109,6.109,0,0,0,1.355,3.8.641.641,0,0,1-.019.859L.183,18.936A.625.625,0,0,0,.625,20h7.5c4.231,0,7.712-2.751,8.087-6.25h3.162a.625.625,0,0,0,.442-1.067ZM8.125,18.752H2.133l.086-.086a1.9,1.9,0,0,0,.118-2.516A4.869,4.869,0,0,1,1.25,13.128c0-3.1,3.084-5.625,6.875-5.625S15,10.026,15,13.128,11.915,18.752,8.125,18.752Zm8.087-6.25c-.375-3.5-3.857-6.25-8.087-6.25a9.362,9.362,0,0,0-3.119.529c.064-3.057,3.118-5.528,6.869-5.528,3.791,0,6.875,2.523,6.875,5.625A4.869,4.869,0,0,1,17.662,9.9a1.9,1.9,0,0,0,.118,2.516l.086.086Z"
                data-name="Path 30630" fill="#392694" id="Path_30630" transform="translate(0)" />
        </g>
    </g>
</svg>
