<svg height="40" viewBox="0 0 40 40" width="40" xmlns="http://www.w3.org/2000/svg">
    <g data-name="Group 24687" id="Group_24687" transform="translate(-168 -5.002)">
        <rect data-name="Rectangle 13175" fill="#392694" height="40" id="Rectangle_13175" rx="20"
            transform="translate(168 5.002)" width="40" />
        <g data-name="Group 24409" id="Group_24409" transform="translate(62 -524.998)">
            <g data-name="Rectangle 13178" fill="#fff" id="Rectangle_13178" opacity="0"
                stroke="#707070" stroke-width="1" transform="translate(114 538)">
                <rect height="24" stroke="none" width="24" />
                <rect fill="none" height="23" width="23" x="0.5" y="0.5" />
            </g>
            <g data-name="Group 24408" id="Group_24408" transform="translate(1712.832 -5981.33)">
                <path
                    d="M13.427,17.562h-4.6a5.263,5.263,0,0,0,.484-1.1h3.615V7.135a.526.526,0,0,1,.5-.549H14L7.956,1.251,1.915,6.586h.571a.526.526,0,0,1,.5.549l0,2.663a5.18,5.18,0,0,0-1,.379V7.684H.5a.5.5,0,0,1-.469-.367.585.585,0,0,1,.158-.611L7.646.12a.463.463,0,0,1,.622,0l7.459,6.586a.585.585,0,0,1,.158.611.5.5,0,0,1-.469.367H13.924v9.329A.526.526,0,0,1,13.427,17.562Z"
                    data-name="Subtraction 7" fill="#fff" id="Subtraction_7"
                    transform="translate(-1593.745 6521.33)" />
                <g data-name="add-button (2)" id="add-button_2_"
                    transform="translate(-1594.832 6530.495)">
                    <path
                        d="M5.417,0a5.417,5.417,0,1,0,5.417,5.417A5.423,5.423,0,0,0,5.417,0Zm0,10.157a4.74,4.74,0,1,1,4.74-4.74A4.745,4.745,0,0,1,5.417,10.157Z"
                        data-name="Path 30491" fill="#fff" id="Path_30491" />
                    <path
                        d="M140.829,137.783h-.677v2.37h-2.37v.677h2.37v2.37h.677v-2.37h2.37v-.677h-2.37Z"
                        data-name="Path 30492" fill="#fff" id="Path_30492"
                        transform="translate(-135.073 -135.074)" />
                </g>
            </g>
        </g>
    </g>
</svg>
