<svg height="24" viewBox="0 0 24 24" width="24" xmlns="http://www.w3.org/2000/svg">
    <g id="outline-remove_red_eye-24px" transform="translate(0 0)">
        <g id="Bounding_Boxes" opacity="0" transform="translate(0 0)">
            <path d="M0,0H24V24H0Z" data-name="Path 3129" fill="#abaab3" id="Path_3129" />
        </g>
        <g id="Outline" transform="translate(1 0.5)">
            <g data-name="Group 284" id="Group_284" transform="translate(1 4.5)">
                <path
                    d="M11,6.233A8.931,8.931,0,0,1,19.018,11,8.921,8.921,0,0,1,11,15.767,8.921,8.921,0,0,1,2.982,11,8.931,8.931,0,0,1,11,6.233M11,4.5A10.754,10.754,0,0,0,1,11a10.754,10.754,0,0,0,10,6.5A10.754,10.754,0,0,0,21,11,10.754,10.754,0,0,0,11,4.5Z"
                    data-name="Path 3130" fill="#abaab3" id="Path_3130"
                    transform="translate(-1 -4.5)" />
                <path
                    d="M11.591,9.177a2.191,2.191,0,0,1,2.273,2.1,2.191,2.191,0,0,1-2.273,2.1,2.191,2.191,0,0,1-2.273-2.1,2.191,2.191,0,0,1,2.273-2.1m0-1.677A3.947,3.947,0,0,0,7.5,11.273a3.947,3.947,0,0,0,4.091,3.773,3.947,3.947,0,0,0,4.091-3.773A3.947,3.947,0,0,0,11.591,7.5Z"
                    data-name="Path 3131" fill="#abaab3" id="Path_3131"
                    transform="translate(-1.591 -4.773)" />
            </g>
        </g>
    </g>
</svg>
