<svg height="24" viewBox="0 0 24 24" width="24" xmlns="http://www.w3.org/2000/svg">
    <g data-name="Group 24925" id="Group_24925" transform="translate(-205 -194)">
        <g data-name="Rectangle 13403" fill="#313033" id="Rectangle_13403" opacity="0"
            stroke="#707070" stroke-width="1" transform="translate(205 194)">
            <rect height="24" stroke="none" width="24" />
            <rect fill="none" height="23" width="23" x="0.5" y="0.5" />
        </g>
        <g id="camera" transform="translate(209 156.333)">
            <g data-name="Group 24924" id="Group_24924" transform="translate(0 42.667)">
                <g data-name="Group 24923" id="Group_24923" transform="translate(0 0)">
                    <path
                        d="M132,149.333a4,4,0,1,0,4,4A4,4,0,0,0,132,149.333Zm0,7.333a3.333,3.333,0,1,1,3.333-3.333A3.337,3.337,0,0,1,132,156.666Z"
                        data-name="Path 30677" fill="#313033" id="Path_30677"
                        transform="translate(-124 -146)" />
                    <circle cx="0.667" cy="0.667" data-name="Ellipse 237" fill="#313033"
                        id="Ellipse_237" r="0.667" transform="translate(12.667 4)" />
                    <path
                        d="M14.667,44.667H12.552a1,1,0,0,1-.707-.293l-1.219-1.219a1.656,1.656,0,0,0-1.179-.488h-2.9a1.656,1.656,0,0,0-1.179.488L4.155,44.374a1,1,0,0,1-.707.293H1.333A1.335,1.335,0,0,0,0,46v8.667A1.335,1.335,0,0,0,1.333,56H14.667A1.335,1.335,0,0,0,16,54.667V46A1.335,1.335,0,0,0,14.667,44.667Zm.667,10a.668.668,0,0,1-.667.667H1.333a.668.668,0,0,1-.667-.667V46a.668.668,0,0,1,.667-.667H3.448a1.656,1.656,0,0,0,1.179-.488l1.219-1.219a1,1,0,0,1,.707-.293h2.9a1,1,0,0,1,.707.293l1.219,1.219a1.656,1.656,0,0,0,1.179.488h2.114a.668.668,0,0,1,.667.667v8.667Z"
                        data-name="Path 30678" fill="#313033" id="Path_30678"
                        transform="translate(0 -42.667)" />
                </g>
            </g>
        </g>
    </g>
</svg>
