<svg height="80" viewBox="0 0 150 80" width="150" xmlns="http://www.w3.org/2000/svg">
    <g id="Group_23410" transform="translate(-12833 -10127.223)">
        <g fill="#fff" id="Rectangle_12834" opacity="0" stroke="#707070" stroke-width="1"
            transform="translate(12833 10127.223)">
            <rect height="79.97" stroke="none" width="150" />
            <rect fill="none" height="78.97" width="149" x="0.5" y="0.5" />
        </g>
        <g id="Layer_2" transform="translate(12833.089 10127.292)">
            <path
                d="M-175.657,329.771l-3.254,2.952-3.254-2.952a1.229,1.229,0,0,0-1.657,0l-3.254,2.952-3.254-2.952a1.229,1.229,0,0,0-1.657,0l-3.254,2.952-3.254-2.952a1.229,1.229,0,0,0-1.657,0l-3.254,2.952-3.25-2.952a1.236,1.236,0,0,0-1.745.085,1.232,1.232,0,0,0-.32.89,1.232,1.232,0,0,0,.405.855l4.084,3.689a1.236,1.236,0,0,0,1.657,0l3.254-2.952,3.254,2.952a1.236,1.236,0,0,0,1.657,0l3.254-2.952,3.254,2.952a1.236,1.236,0,0,0,1.657,0l3.254-2.952,3.254,2.952a1.236,1.236,0,0,0,.826.317,1.244,1.244,0,0,0,.83-.317L-174,331.6a1.236,1.236,0,0,0,.085-1.745,1.236,1.236,0,0,0-1.745-.085Zm0,0"
                fill="#392694" id="Path_811" transform="translate(323.412 -262.665)" />
            <path
                d="M-293.554,329.77l-3.25,2.952-3.258-2.952a1.229,1.229,0,0,0-1.657,0l-3.254,2.952-3.25-2.952a1.232,1.232,0,0,0-1.66,0l-3.254,2.952-3.25-2.952a1.232,1.232,0,0,0-1.66,0l-3.25,2.952-3.254-2.952a1.236,1.236,0,0,0-1.745.085,1.236,1.236,0,0,0,.085,1.745l4.084,3.689a1.236,1.236,0,0,0,1.656,0l3.254-2.952,3.254,2.952a1.236,1.236,0,0,0,1.657,0l3.254-2.952,3.254,2.952a1.236,1.236,0,0,0,1.657,0l3.254-2.952,3.254,2.952a1.243,1.243,0,0,0,.83.317,1.244,1.244,0,0,0,.826-.317l4.084-3.689a1.232,1.232,0,0,0,.405-.855,1.232,1.232,0,0,0-.32-.89A1.236,1.236,0,0,0-293.554,329.77Zm-5.058,0"
                fill="#392694" id="Path_812" transform="translate(397.812 -262.664)" />
            <path d="M-328,317.63" fill="#392694" id="Path_813"
                transform="translate(398.684 -254.983)" />
            <path
                d="M-470.978,329.771l-3.254,2.952-3.254-2.952a1.228,1.228,0,0,0-1.656,0l-3.254,2.952-3.254-2.952a1.229,1.229,0,0,0-1.657,0l-3.254,2.952-3.254-2.952a1.229,1.229,0,0,0-1.657,0l-3.254,2.952-3.254-2.952a1.236,1.236,0,0,0-1.745.085,1.236,1.236,0,0,0,.089,1.745l4.081,3.689a1.236,1.236,0,0,0,1.656,0l3.254-2.952,3.254,2.952a1.236,1.236,0,0,0,1.657,0l3.254-2.952,3.254,2.952a1.236,1.236,0,0,0,1.657,0l3.254-2.952,3.254,2.952a1.243,1.243,0,0,0,.83.317,1.236,1.236,0,0,0,.826-.317l4.084-3.689a1.236,1.236,0,0,0,.089-1.745,1.236,1.236,0,0,0-1.745-.085Z"
                fill="#392694" id="Path_814" transform="translate(509.777 -262.665)" />
            <path
                d="M-338.576,181.018l-18.894-32.441a1.756,1.756,0,0,1,.391-2.45,1.756,1.756,0,0,1,2.453.391l20.166,34.681m21.768,27.977"
                fill="#392694" id="Path_815" transform="translate(417.491 -145.736)" />
            <path
                d="M-438.35,209.192h-35.234a1.756,1.756,0,0,1-1.565-.959A1.756,1.756,0,0,1-475,206.4l43.325-59.82a1.756,1.756,0,0,1,1.962-.715,1.756,1.756,0,0,1,1.258,1.667,1.789,1.789,0,0,1-.332,1.052l-41.355,57.094h31.8a1.756,1.756,0,1,1,0,3.512Zm0,0"
                fill="#392694" id="Path_816" transform="translate(491.664 -145.738)" />
            <path
                d="M-411.833,209.095a1.756,1.756,0,0,1-1.429-.736,1.756,1.756,0,0,1-.231-1.592l20.583-59.883a1.749,1.749,0,0,1,.881-1.048,1.749,1.749,0,0,1,1.366-.092,1.753,1.753,0,0,1,1.02.915,1.752,1.752,0,0,1,.05,1.369l-20.58,59.879a1.752,1.752,0,0,1-1.66,1.192Zm0,0"
                fill="#392694" id="Path_817" transform="translate(452.695 -145.644)" />
            <path
                d="M-501.5,249.049H-517.83a1.76,1.76,0,0,1-1.554-.945,1.76,1.76,0,0,1,.112-1.815l25.361-36.577a1.756,1.756,0,0,1,1.379-.752,1.756,1.756,0,0,1,1.429.652l9.187,11.411a1.763,1.763,0,0,1-2.745,2.214l-7.707-9.592-22.118,31.9h12.972a1.756,1.756,0,1,1,0,3.512Zm0,0"
                fill="#392694" id="Path_818" transform="translate(519.585 -186.188)" />
            <path
                d="M-273.6,227.819a1.572,1.572,0,0,0,.524-2.14c-.066-.111-6.825-11.068-19.834-4.549-9.15,4.575-11.921,4.136-12.271,4.058a1.572,1.572,0,0,0-1.974.2,1.568,1.568,0,0,0,0,2.214,3.443,3.443,0,0,0,2.542.775c2.251,0,6.195-.978,13.1-4.427,10.375-5.184,15.533,3.011,15.743,3.357a1.568,1.568,0,0,0,2.151.539Zm0,0"
                fill="#392694" id="Path_819" transform="translate(385.816 -192.363)" />
            <path
                d="M-386.742,254.44h2.918v20.425h8.751v2.918h-8.751v4.376a13.879,13.879,0,0,1-1.926,5.66,13.506,13.506,0,0,1-5.4,5.457,14.829,14.829,0,0,1-7.294,1.985h-2.889v-2.889h2.918a12.341,12.341,0,0,0,5.8-1.634,10.507,10.507,0,0,0,4.291-4.361,11.777,11.777,0,0,0,1.575-5.689Z"
                fill="#392694" id="Path_820" transform="translate(444.959 -215.329)" />
            <path
                d="M-346,264.837h5.833V238.579h2.918v4.084h8.9a26.878,26.878,0,0,0,8.607-2.044,29.606,29.606,0,0,1,10.153-2.07q4.667,0,8.9,4.287A14.167,14.167,0,0,1-296.4,253.2v11.64h8.751v2.918H-346Zm8.751,0h37.927v-11.67a11.706,11.706,0,0,0-3.472-8.227,9.959,9.959,0,0,0-7.379-3.269,31.084,31.084,0,0,0-9.264,2.014,27.477,27.477,0,0,1-8.637,1.9h-9.19Z"
                fill="#392694" id="Path_821" transform="translate(410.043 -204.954)" />
            <path
                d="M-171.622,267.861h-32.1v-2.918h5.833v-5.837q0-10.238,7.264-15.127,3.593-2.479,9.426-2.42a15.1,15.1,0,0,0,9.57-2.889Zm-23.347-2.918h20.425v-21.59a19.5,19.5,0,0,1-7.323,1.166,11.954,11.954,0,0,0-7.324,2.044,13.245,13.245,0,0,0-4.346,5.018,17,17,0,0,0-1.431,7.526Z"
                fill="#392694" id="Path_822" transform="translate(320.256 -205.03)" />
            <path d="M-282.274,145.79v18.668h4.634V166h-6.18V145.79Z" fill="#392694" id="Path_823"
                transform="translate(370.803 -145.735)" />
            <path
                d="M-266.556,158.67v15.462h-6.5v-1.546h4.959V158.67Zm-3.531,18.967a1.443,1.443,0,0,1,.465,1.107,1.476,1.476,0,0,1-.465,1.077,1.476,1.476,0,0,1-1.081.461,1.476,1.476,0,0,1-1.107-.461,1.476,1.476,0,0,1-.45-1.081,1.379,1.379,0,0,1,.45-1.107,1.428,1.428,0,0,1,1.107-.446A1.38,1.38,0,0,1-270.086,177.637Zm3.553,0a1.446,1.446,0,0,1,.465,1.107,1.476,1.476,0,0,1-.465,1.081,1.5,1.5,0,0,1-1.107.465,1.442,1.442,0,0,1-1.081-.465,1.45,1.45,0,0,1-.465-1.081,1.421,1.421,0,0,1,.465-1.107,1.409,1.409,0,0,1,1.081-.446,1.428,1.428,0,0,1,1.1.461Z"
                fill="#392694" id="Path_824" transform="translate(364.013 -153.863)" />
            <path
                d="M-260.088,187.5h1.546v13.887a8.253,8.253,0,0,1-1.022,3.785,7.128,7.128,0,0,1-2.856,2.889,7.877,7.877,0,0,1-3.863,1.051h-1.527v-1.531h1.542a6.575,6.575,0,0,0,3.077-.863,5.534,5.534,0,0,0,2.269-2.3,6.272,6.272,0,0,0,.834-3.014Z"
                fill="#392694" id="Path_825" transform="translate(360.7 -172.324)" />
            <path d="M-228.588,145.64V171.9h4.634v1.546h-6.176v-27.8Z" fill="#392694" id="Path_826"
                transform="translate(336.922 -145.64)" />
            <path
                d="M-221.59,182.421l6.161-.063a7.5,7.5,0,0,1-2.811-4.154,7.4,7.4,0,0,1,.775-5.855,7.749,7.749,0,0,1,1.944-2.214,7.607,7.607,0,0,1,2.734-1.358,7.441,7.441,0,0,1,5.84.771,7.379,7.379,0,0,1,3.6,4.682,7.379,7.379,0,0,1-.771,5.837,7.969,7.969,0,0,1-2.025,2.3h7.748v1.575l-23.184.063Zm16.093-3.151a5.863,5.863,0,0,0,.62-4.649,6,6,0,0,0-2.845-3.723h0a5.981,5.981,0,0,0-4.634-.62,6,6,0,0,0-3.723,2.859,5.9,5.9,0,0,0-.616,4.649,5.9,5.9,0,0,0,2.856,3.723,5.94,5.94,0,0,0,4.641.627,5.9,5.9,0,0,0,3.723-2.856Zm-6.239-16.484a1.476,1.476,0,0,1,.48,1.107,1.531,1.531,0,0,1-.465,1.107,1.5,1.5,0,0,1-1.107.465,1.476,1.476,0,0,1-1.107-.465,1.527,1.527,0,0,1-.45-1.107,1.5,1.5,0,0,1,.465-1.107,1.52,1.52,0,0,1,1.081-.446,1.52,1.52,0,0,1,1.1.446Zm3.892,0a1.5,1.5,0,0,1,.465,1.107,1.527,1.527,0,0,1-.45,1.107,1.5,1.5,0,0,1-1.107.465,1.524,1.524,0,0,1-1.107-.465,1.531,1.531,0,0,1-.465-1.107,1.5,1.5,0,0,1,.465-1.107,1.528,1.528,0,0,1,1.107-.446,1.524,1.524,0,0,1,1.092.446Z"
                fill="#392694" id="Path_827" transform="translate(331.533 -156.178)" />
            <path
                d="M-156.411,180.654a5.9,5.9,0,0,0-4.342,1.808,5.929,5.929,0,0,0-1.8,4.339,6.01,6.01,0,0,0,1.8,4.357,6.2,6.2,0,0,0,4.357,1.823h7.726v1.546H-167.21v-1.561h6.18a6.617,6.617,0,0,1-.849-.712,7.453,7.453,0,0,1-2.269-5.468,7.43,7.43,0,0,1,2.269-5.449,7.519,7.519,0,0,1,5.468-2.287,7.449,7.449,0,0,1,5.468,2.287,7.711,7.711,0,0,1,1.653,2.453,6.674,6.674,0,0,1,.62,2.734,2.7,2.7,0,0,1-.125.849,1.5,1.5,0,0,1-.509.712,1.764,1.764,0,0,1-1.284.218,1.505,1.505,0,0,1-1.066-.775,1.682,1.682,0,0,1-.229-1.372,1.188,1.188,0,0,1,.771-.911,1.055,1.055,0,0,1,.572-.111c.063.022.081-.03.063-.155a2.5,2.5,0,0,0-.188-.524c-.133-.247-.3-.531-.509-.849a12.637,12.637,0,0,0-.878-1.158A5.969,5.969,0,0,0-156.411,180.654Z"
                fill="#392694" id="Path_828" transform="translate(297.216 -166.917)" />
        </g>
    </g>
</svg>
