<svg height="24" viewBox="0 0 24 24" width="24" xmlns="http://www.w3.org/2000/svg">
    <g data-name="Group 24926" id="Group_24926" transform="translate(-171 -715)">
        <g data-name="Rectangle 13404" fill="#313033" id="Rectangle_13404" opacity="0"
            stroke="#707070" stroke-width="1" transform="translate(171 715)">
            <rect height="24" stroke="none" width="24" />
            <rect fill="none" height="23" width="23" x="0.5" y="0.5" />
        </g>
        <g id="image" transform="translate(173 658.941)">
            <path
                d="M94.088,127.117a2.5,2.5,0,1,0-2.5-2.5A2.5,2.5,0,0,0,94.088,127.117Zm0-3.75a1.25,1.25,0,1,1-1.25,1.25A1.252,1.252,0,0,1,94.088,123.367Z"
                data-name="Path 30679" fill="#313033" id="Path_30679"
                transform="translate(-87.838 -58.558)" />
            <path
                d="M19.375,61.059H.625A.625.625,0,0,0,0,61.684v13.75a.625.625,0,0,0,.625.625h18.75A.625.625,0,0,0,20,75.434V61.684a.625.625,0,0,0-.625-.625ZM1.25,62.309h17.5V73.3l-5.808-5.808a.625.625,0,0,0-.884,0L4.741,74.809H1.25v-12.5Zm17.241,12.5H6.509L12.5,68.818Z"
                data-name="Path 30680" fill="#313033" id="Path_30680" transform="translate(0)" />
        </g>
    </g>
</svg>
