<svg height="24" viewBox="0 0 24 24" width="24" xmlns="http://www.w3.org/2000/svg">
    <g data-name="Group 24630" id="Group_24630" transform="translate(-252 -405)">
        <g data-name="Rectangle 13286" fill="#392694" id="Rectangle_13286" opacity="0"
            stroke="#707070" stroke-width="1" transform="translate(252 405)">
            <rect height="24" stroke="none" width="24" />
            <rect fill="none" height="23" width="23" x="0.5" y="0.5" />
        </g>
        <g data-name="information (5)" id="information_5_" transform="translate(254 407)">
            <g data-name="Group 24629" id="Group_24629">
                <g data-name="Group 24628" id="Group_24628">
                    <path
                        d="M10,0A10,10,0,1,0,20,10,10.011,10.011,0,0,0,10,0Zm0,19.167A9.167,9.167,0,1,1,19.167,10,9.177,9.177,0,0,1,10,19.167Z"
                        data-name="Path 30627" fill="#392694" id="Path_30627" />
                    <path
                        d="M153.5,85.333a4.172,4.172,0,0,0-4.167,4.167v.417a.416.416,0,0,0,.417.417h1.667a.416.416,0,0,0,.417-.417V89.5a1.667,1.667,0,1,1,1.667,1.667,1.669,1.669,0,0,0-1.667,1.667v2.083a.416.416,0,0,0,.417.417h1.667a.416.416,0,0,0,.417-.417V93.583a4.167,4.167,0,0,0-.833-8.25Zm.37,7.48a.417.417,0,0,0-.37.414V94.5h-.833V92.833A.834.834,0,0,1,153.5,92a2.5,2.5,0,1,0-2.5-2.5h-.833a3.333,3.333,0,1,1,3.7,3.313Z"
                        data-name="Path 30628" fill="#392694" id="Path_30628"
                        transform="translate(-143.5 -82)" />
                    <path
                        d="M214.583,362.667a1.25,1.25,0,1,0,1.25,1.25A1.251,1.251,0,0,0,214.583,362.667Zm0,1.667a.417.417,0,1,1,.417-.417A.418.418,0,0,1,214.583,364.334Z"
                        data-name="Path 30629" fill="#392694" id="Path_30629"
                        transform="translate(-205 -348.5)" />
                </g>
            </g>
        </g>
    </g>
</svg>
