<svg height="20" viewBox="0 0 20 20" width="20" xmlns="http://www.w3.org/2000/svg">
    <g data-name="Group 24462" id="Group_24462" transform="translate(-116 -260)">
        <g data-name="Rectangle 13203" fill="#abaab3" id="Rectangle_13203" opacity="0"
            stroke="#707070" stroke-width="1" transform="translate(116 260)">
            <rect height="20" stroke="none" width="20" />
            <rect fill="none" height="19" width="19" x="0.5" y="0.5" />
        </g>
        <g id="key" transform="translate(116.001 261.625)">
            <path
                d="M1.2,46.166a.121.121,0,0,1-.081-.016.277.277,0,0,1-.194-.16L.037,44.358a.314.314,0,0,1,.129-.432L.7,43.637l-.291-.608a.321.321,0,0,1,.113-.4l.581-.368L.8,41.621a.321.321,0,0,1,.113-.4l.6-.4L1.2,40.148a.309.309,0,0,1-.016-.208L1.8,37.619a3.6,3.6,0,0,1,.71-5.746,3.6,3.6,0,0,1,2.727-.32A3.536,3.536,0,0,1,7.7,35.939a3.756,3.756,0,0,1-2.743,2.673l-1.84,6.37a.345.345,0,0,1-.145.192L1.361,46.1a.232.232,0,0,1-.161.064ZM.747,44.342,1.328,45.4l1.21-.7L4.394,38.26a.309.309,0,0,1,.258-.224,3.093,3.093,0,0,0,2.421-2.257A2.9,2.9,0,0,0,5.04,32.193a2.989,2.989,0,0,0-2.227.256,2.939,2.939,0,0,0-1.388,1.745,2.9,2.9,0,0,0,.936,3.057.331.331,0,0,1,.113.336l-.629,2.4.371.816a.326.326,0,0,1-.113.4l-.6.384.307.624a.321.321,0,0,1-.113.4l-.581.368.307.624a.309.309,0,0,1-.129.416Zm0,0"
                data-name="Path 30506" fill="#abaab3" id="Path_30506"
                transform="translate(0 -29.791)" />
            <path
                d="M86.218,66.075a1.012,1.012,0,0,1-.307-.049,1.2,1.2,0,0,1-.694-.532,1.125,1.125,0,0,1-.1-.855,1.161,1.161,0,0,1,1.4-.791,1.2,1.2,0,0,1,.694.533,1.147,1.147,0,0,1-1,1.694Zm0-1.614a.484.484,0,0,0-.468.355.5.5,0,0,0,.048.371.5.5,0,0,0,.9-.113.5.5,0,0,0-.049-.371.476.476,0,0,0-.436-.242Zm0,0"
                data-name="Path 30507" fill="#abaab3" id="Path_30507"
                transform="translate(-81.646 -60.897)" />
            <path
                d="M134.251,124.484a3.071,3.071,0,0,1-1.888-.645.323.323,0,1,1,.387-.516,2.477,2.477,0,0,0,2.743.161.318.318,0,0,1,.323.549A2.85,2.85,0,0,1,134.251,124.484Zm0,0"
                data-name="Path 30508" fill="#abaab3" id="Path_30508"
                transform="translate(-126.904 -117.969)" />
            <path
                d="M106.073,3.586h-.016a.335.335,0,0,1-.307-.339,3.088,3.088,0,0,1,6.1-.436.323.323,0,1,1-.629.145,2.44,2.44,0,0,0-4.825.323.345.345,0,0,1-.323.307Zm0,0"
                data-name="Path 30509" fill="#abaab3" id="Path_30509"
                transform="translate(-101.485)" />
            <path
                d="M216.221,66.19a.32.32,0,0,1-.226-.1l-5.487-5.429a1.323,1.323,0,0,1-.42-.862l-.339-3.529v-.032a1.412,1.412,0,0,1,.419-1.054,1.34,1.34,0,0,1,.984-.415h.113l3.566.319a1.382,1.382,0,0,1,.871.415l5.487,5.429a.307.307,0,0,1,0,.447l-4.744,4.71a.272.272,0,0,1-.226.1ZM210.4,56.226l.339,3.529v.032a.7.7,0,0,0,.242.431l5.261,5.205,4.276-4.247-5.261-5.206a.752.752,0,0,0-.436-.24h-.032l-3.631-.335a.71.71,0,0,0-.516.24.735.735,0,0,0-.242.591Zm0,0"
                data-name="Path 30510" fill="#abaab3" id="Path_30510"
                transform="translate(-201.289 -52.203)" />
            <path
                d="M302.072,147.785a.319.319,0,0,1-.226-.1.312.312,0,0,1,0-.452l1.565-1.565a.319.319,0,0,1,.452.452l-1.565,1.565A.319.319,0,0,1,302.072,147.785Zm0,0"
                data-name="Path 30511" fill="#abaab3" id="Path_30511"
                transform="translate(-289.577 -139.392)" />
            <path
                d="M347.272,192.987a.319.319,0,0,1-.226-.1.312.312,0,0,1,0-.452l1.565-1.565a.32.32,0,1,1,.452.452L347.5,192.89A.319.319,0,0,1,347.272,192.987Zm0,0"
                data-name="Path 30512" fill="#abaab3" id="Path_30512"
                transform="translate(-332.953 -182.787)" />
        </g>
    </g>
</svg>
