<svg height="24" viewBox="0 0 24 24" width="24" xmlns="http://www.w3.org/2000/svg">
    <g data-name="Group 24415" id="Group_24415" transform="translate(1478 -6481)">
        <g data-name="Rectangle 13182" fill="#392694" id="Rectangle_13182" opacity="0"
            stroke="#707070" stroke-width="1" transform="translate(-1478 6481)">
            <rect height="24" stroke="none" width="24" />
            <rect fill="none" height="23" width="23" x="0.5" y="0.5" />
        </g>
        <g data-name="share (1)" id="share_1_" transform="translate(-1502.069 6424.313)">
            <g data-name="Group 24414" id="Group_24414" transform="translate(27.069 58.687)">
                <g data-name="Group 24413" id="Group_24413" transform="translate(0 0)">
                    <path
                        d="M15.466,215.142c-.713,0-2.322,1.744-3.071,1.951-.1-1.005-1.442-1.361-2.829-1.631a6.425,6.425,0,0,1-1.56-.552,4.073,4.073,0,0,0-1.8-.506,7.933,7.933,0,0,0-1.961.268,1.076,1.076,0,0,0-.836-.742l-2.974-.57a.384.384,0,0,0-.3.072A.346.346,0,0,0,0,213.7v5.6a.358.358,0,0,0,.365.35H2.653a1.089,1.089,0,0,0,1-.661c.818.374,4.6,2.062,6.2,2.062,1.416,0,5.926-2.983,5.926-2.983a20.4,20.4,0,0,1,1.654-1.211.35.35,0,0,0,.218-.321C17.656,215.718,16.756,215.142,15.466,215.142ZM3.557,215.01l-.543,3.646a.363.363,0,0,1-.362.3H.73v-4.827l2.537.487A.352.352,0,0,1,3.557,215.01Zm11.9,2.436s-4.357,2.912-5.6,2.912c-1.328,0-4.816-1.492-6.047-2.066h0l.43-2.886a7.288,7.288,0,0,1,1.971-.3,3.4,3.4,0,0,1,1.482.436,7.158,7.158,0,0,0,1.731.608c1.587.309,2.263.625,2.263,1.058a.205.205,0,0,1-.1.188c-.232.166-1.139.446-4.546-.524a.367.367,0,0,0-.454.236.348.348,0,0,0,.246.435,15.37,15.37,0,0,0,3.879.717,2.264,2.264,0,0,0,1.311-.3c.024-.017.042-.039.064-.057a.36.36,0,0,0,.069-.007c.645-.19,2.606-2.048,3.309-2.048a1.722,1.722,0,0,1,1.406.5A15.877,15.877,0,0,0,15.462,217.447Z"
                        data-name="Path 30499" fill="#392694" id="Path_30499"
                        transform="translate(0 -201.059)" />
                    <path
                        d="M14.19,5.482l-1.627-1.3V1.346A.448.448,0,0,0,12.115.9H10.321a.449.449,0,0,0-.449.448v.682L7.46.1A.45.45,0,0,0,6.9.1L.169,5.482a.449.449,0,0,0,.28.8H1.8v7.628c0,.248,1.605.449,1.853.449h8.467a.448.448,0,0,0,.449-.449V6.281H13.91a.449.449,0,0,0,.28-.8Zm-3.421-2.79v-.9h.9V3.463L10.7,2.692h.066ZM6.282,13.461V9.871H8.077v3.59Zm5.833-8.076a.448.448,0,0,0-.449.449v7.628H8.974V9.422a.448.448,0,0,0-.449-.449H5.833a.448.448,0,0,0-.449.449v4.038H2.693V5.833a.448.448,0,0,0-.449-.449H1.728L7.179,1.023l5.451,4.361Z"
                        data-name="house (2)" fill="#392694" id="house_2_"
                        transform="translate(4.642 0)" />
                </g>
            </g>
        </g>
    </g>
</svg>
