<svg height="28" viewBox="0 0 28 28" width="28" xmlns="http://www.w3.org/2000/svg">
    <g data-name="Group 24709" id="Group_24709" transform="translate(414 -6324)">
        <g data-name="Rectangle 13309" fill="#eae6ff" id="Rectangle_13309"
            stroke="rgba(171,170,179,0.2)" stroke-width="1" transform="translate(-414 6324)">
            <rect height="28" rx="4" stroke="none" width="28" />
            <rect fill="none" height="27" rx="3.5" width="27" x="0.5" y="0.5" />
        </g>
        <path
            d="M15.714,11.429a4.272,4.272,0,0,0-3.448,1.763l-3.9-1.951A4.228,4.228,0,0,0,8.572,10a4.228,4.228,0,0,0-.205-1.241l3.9-1.951a4.268,4.268,0,1,0-.838-2.522,4.227,4.227,0,0,0,.205,1.241l-3.9,1.951a4.286,4.286,0,1,0,0,5.044l3.9,1.951a4.227,4.227,0,0,0-.205,1.241,4.286,4.286,0,1,0,4.286-4.286Zm0-10a2.857,2.857,0,1,1-2.857,2.857A2.86,2.86,0,0,1,15.714,1.429ZM4.286,12.857A2.857,2.857,0,1,1,7.143,10,2.86,2.86,0,0,1,4.286,12.857Zm11.429,5.714a2.857,2.857,0,1,1,2.857-2.857A2.86,2.86,0,0,1,15.714,18.571Z"
            data-name="share (2)" id="share_2_" transform="translate(-410 6328)" />
    </g>
</svg>
