<svg height="24" viewBox="0 0 24 24" width="24" xmlns="http://www.w3.org/2000/svg">
    <g data-name="Group 24728" id="Group_24728" transform="translate(1167 -6788)">
        <g id="apartment" transform="translate(-1171.804 6789.965)">
            <path d="M72.031,8.035H86.006v19.3H72.031Zm0,0" data-name="Path 26543" fill="#e0b251"
                id="Path_26543" transform="translate(-62.229 -7.667)" />
            <path d="M48.031.035H64V.7H48.031Zm0,0" data-name="Path 26544" fill="#fd882f"
                id="Path_26544" transform="translate(-39.228 0)" />
            <path d="M48.031,32.035H64V32.7H48.031Zm0,0" data-name="Path 26545" fill="#fd882f"
                id="Path_26545" transform="translate(-39.228 -30.669)" />
            <path d="M48.031,176.035H64v.665H48.031Zm0,0" data-name="Path 26546" fill="#fd882f"
                id="Path_26546" transform="translate(-39.228 -168.68)" />
            <g data-name="Group 23094" id="Group_23094" transform="translate(9.802 3.362)">
                <path d="M72.031,96.035h1V96.7h-1Zm0,0" data-name="Path 26554" fill="#ef701b"
                    id="Path_26554" transform="translate(-72.031 -95.37)" />
                <path d="M192.031,120.035h1v.665h-1Zm0,0" data-name="Path 26555" fill="#ef701b"
                    id="Path_26555" transform="translate(-187.04 -118.371)" />
                <path d="M384.031,144.035h1v.665h-1Zm0,0" data-name="Path 26556" fill="#ef701b"
                    id="Path_26556" transform="translate(-371.055 -141.373)" />
                <path d="M280.031,80.035h.665V80.7h-.665Zm0,0" data-name="Path 26557" fill="#ef701b"
                    id="Path_26557" transform="translate(-271.38 -80.035)" />
                <path d="M288.031,224.035h1v.665h-1Zm0,0" data-name="Path 26558" fill="#ef701b"
                    id="Path_26558" transform="translate(-279.047 -218.046)" />
                <path d="M272.031,304.035h.665v.665h-.665Zm0,0" data-name="Path 26560"
                    fill="#ef701b" id="Path_26560" transform="translate(-263.713 -294.719)" />
                <path d="M384.031,368.035h.665v.665h-.665Zm0,0" data-name="Path 26561"
                    fill="#ef701b" id="Path_26561" transform="translate(-371.055 -356.057)" />
                <path d="M192.031,416.035h.665v.665h-.665Zm0,0" data-name="Path 26562"
                    fill="#ef701b" id="Path_26562" transform="translate(-187.04 -402.06)" />
                <path d="M104.031,144.035h1v.665h-1Zm0,0" data-name="Path 26563" fill="#ef701b"
                    id="Path_26563" transform="translate(-102.7 -141.373)" />
            </g>
            <path d="M120.031,72.035h2v3.327h-2Zm0,0" data-name="Path 26564" fill="#eae6ff"
                id="Path_26564" transform="translate(-108.233 -69.006)" />
            <path d="M120.031,72.035h2V73.7h-2Zm0,0" data-name="Path 26565" fill="#dee1e3"
                id="Path_26565" transform="translate(-108.233 -69.006)" />
            <path d="M120.031,72.035h2V72.7h-2Zm0,0" data-name="Path 26566" fill="#c0c3c4"
                id="Path_26566" transform="translate(-108.233 -69.006)" />
            <path d="M216.031,72.035h2v3.327h-2Zm0,0" data-name="Path 26567" fill="#eae6ff"
                id="Path_26567" transform="translate(-200.24 -69.006)" />
            <path d="M216.031,72.035h2V73.7h-2Zm0,0" data-name="Path 26568" fill="#dee1e3"
                id="Path_26568" transform="translate(-200.24 -69.006)" />
            <path d="M216.031,72.035h2V72.7h-2Zm0,0" data-name="Path 26569" fill="#c0c3c4"
                id="Path_26569" transform="translate(-200.24 -69.006)" />
            <path d="M312.031,72.035h2v3.327h-2Zm0,0" data-name="Path 26570" fill="#eae6ff"
                id="Path_26570" transform="translate(-292.247 -69.006)" />
            <path d="M312.031,72.035h2V73.7h-2Zm0,0" data-name="Path 26571" fill="#dee1e3"
                id="Path_26571" transform="translate(-292.247 -69.006)" />
            <path d="M312.031,72.035h2V72.7h-2Zm0,0" data-name="Path 26572" fill="#c0c3c4"
                id="Path_26572" transform="translate(-292.247 -69.006)" />
            <path d="M120.031,216.035h2v3.327h-2Zm0,0" data-name="Path 26573" fill="#eae6ff"
                id="Path_26573" transform="translate(-108.233 -207.016)" />
            <path d="M120.031,216.035h2V217.7h-2Zm0,0" data-name="Path 26574" fill="#dee1e3"
                id="Path_26574" transform="translate(-108.233 -207.016)" />
            <path d="M120.031,216.035h2v.665h-2Zm0,0" data-name="Path 26575" fill="#c0c3c4"
                id="Path_26575" transform="translate(-108.233 -207.016)" />
            <path d="M216.031,216.035h2v3.327h-2Zm0,0" data-name="Path 26576" fill="#eae6ff"
                id="Path_26576" transform="translate(-200.24 -207.016)" />
            <path d="M216.031,216.035h2V217.7h-2Zm0,0" data-name="Path 26577" fill="#dee1e3"
                id="Path_26577" transform="translate(-200.24 -207.016)" />
            <path d="M216.031,216.035h2v.665h-2Zm0,0" data-name="Path 26578" fill="#c0c3c4"
                id="Path_26578" transform="translate(-200.24 -207.016)" />
            <path d="M312.031,216.035h2v3.327h-2Zm0,0" data-name="Path 26579" fill="#eae6ff"
                id="Path_26579" transform="translate(-292.247 -207.016)" />
            <path d="M312.031,216.035h2V217.7h-2Zm0,0" data-name="Path 26580" fill="#dee1e3"
                id="Path_26580" transform="translate(-292.247 -207.016)" />
            <path d="M312.031,216.035h2v.665h-2Zm0,0" data-name="Path 26581" fill="#c0c3c4"
                id="Path_26581" transform="translate(-292.247 -207.016)" />
            <path d="M120.031,360.035h2v3.327h-2Zm0,0" data-name="Path 26582" fill="#eae6ff"
                id="Path_26582" transform="translate(-108.233 -345.027)" />
            <path d="M120.031,360.035h2V361.7h-2Zm0,0" data-name="Path 26583" fill="#dee1e3"
                id="Path_26583" transform="translate(-108.233 -345.027)" />
            <path d="M120.031,360.035h2v.665h-2Zm0,0" data-name="Path 26584" fill="#c0c3c4"
                id="Path_26584" transform="translate(-108.233 -345.027)" />
            <path d="M216.031,360.035h2v3.327h-2Zm0,0" data-name="Path 26585" fill="#eae6ff"
                id="Path_26585" transform="translate(-200.24 -345.027)" />
            <path d="M216.031,360.035h2V361.7h-2Zm0,0" data-name="Path 26586" fill="#dee1e3"
                id="Path_26586" transform="translate(-200.24 -345.027)" />
            <path d="M216.031,360.035h2v.665h-2Zm0,0" data-name="Path 26587" fill="#c0c3c4"
                id="Path_26587" transform="translate(-200.24 -345.027)" />
            <path d="M312.031,360.035h2v3.327h-2Zm0,0" data-name="Path 26588" fill="#eae6ff"
                id="Path_26588" transform="translate(-292.247 -345.027)" />
            <path d="M312.031,360.035h2v.665h-2Zm0,0" data-name="Path 26589" fill="#c0c3c4"
                id="Path_26589" transform="translate(-292.247 -345.027)" />
            <path d="M296.031,440.035h3.327v1.331h-3.327Zm0,0" data-name="Path 26590" fill="#e0b251"
                id="Path_26590" transform="translate(-276.913 -421.7)" />
            <path d="M72.031,16.035H86.006V16.7H72.031Zm0,0" data-name="Path 26592" fill="#e0b251"
                id="Path_26592" transform="translate(-62.229 -15.335)" />
            <path d="M72.031,48.035H86.006V48.7H72.031Zm0,0" data-name="Path 26593" fill="#e0b251"
                id="Path_26593" transform="translate(-62.229 -46.004)" />
            <path d="M72.031,192.035H86.006v.665H72.031Zm0,0" data-name="Path 26594" fill="#e0b251"
                id="Path_26594" transform="translate(-62.229 -184.015)" />
            <path d="M72.031,336.035H86.006v.665H72.031Zm0,0" data-name="Path 26595" fill="#e0b251"
                id="Path_26595" transform="translate(-62.229 -322.025)" />
            <path
                d="M192.7,67.7a.333.333,0,0,0,.333.333h2a.333.333,0,0,0,.333-.333V64.368a.333.333,0,0,0-.333-.333h-2a.333.333,0,0,0-.333.333v2h-.665v.665h.665Zm.665-2.995h1.331v1h-1.331Zm0,1.664h1.331v1h-1.331Zm0,0"
                data-name="Path 26596" fill="#313033" id="Path_26596"
                transform="translate(-177.238 -61.338)" />
            <path
                d="M304.364,68.028h2a.333.333,0,0,0,.333-.333V64.368a.333.333,0,0,0-.333-.333h-2a.333.333,0,0,0-.333.333V67.7A.333.333,0,0,0,304.364,68.028ZM304.7,64.7h1.331v1H304.7Zm0,1.664h1.331v1H304.7Zm0,0"
                data-name="Path 26597" fill="#313033" id="Path_26597"
                transform="translate(-284.58 -61.338)" />
            <path
                d="M105.029,68.028h1.664a.333.333,0,0,0,.333-.333V64.368a.333.333,0,0,0-.333-.333h-2a.333.333,0,0,0-.333.333v2.995h-.333v.665Zm0-3.327h1.331v1h-1.331Zm0,1.664h1.331v1h-1.331Zm0,0"
                data-name="Path 26598" fill="#313033" id="Path_26598"
                transform="translate(-92.898 -61.338)" />
            <path
                d="M208.364,212.028h2a.333.333,0,0,0,.333-.333v-3.327a.333.333,0,0,0-.333-.333h-2a.333.333,0,0,0-.333.333V211.7A.333.333,0,0,0,208.364,212.028Zm.333-3.327h1.331v1H208.7Zm0,1.664h1.331v1H208.7Zm0,0"
                data-name="Path 26599" fill="#313033" id="Path_26599"
                transform="translate(-192.573 -199.349)" />
            <path
                d="M288.7,210.031V211.7a.333.333,0,0,0,.333.333h2a.333.333,0,0,0,.333-.333v-3.327a.333.333,0,0,0-.333-.333h-2a.333.333,0,0,0-.333.333v.333h-.665v.665h.665Zm.665-1.331h1.331v1h-1.331Zm0,1.664h1.331v1h-1.331Zm0,0"
                data-name="Path 26600" fill="#313033" id="Path_26600"
                transform="translate(-269.246 -199.349)" />
            <path
                d="M112.364,212.028h2a.333.333,0,0,0,.333-.333v-3.327a.333.333,0,0,0-.333-.333h-2a.333.333,0,0,0-.333.333V211.7A.333.333,0,0,0,112.364,212.028Zm.333-3.327h1.331v1H112.7Zm0,1.664h1.331v1H112.7Zm0,0"
                data-name="Path 26601" fill="#313033" id="Path_26601"
                transform="translate(-100.566 -199.349)" />
            <path
                d="M192.7,355.7a.333.333,0,0,0,.333.333h2a.333.333,0,0,0,.333-.333v-3.327a.333.333,0,0,0-.333-.333h-2a.333.333,0,0,0-.333.333V354.7h-.665v.665h.665Zm.665-2.995h1.331v1h-1.331Zm0,1.664h1.331v1h-1.331Zm0,0"
                data-name="Path 26602" fill="#313033" id="Path_26602"
                transform="translate(-177.238 -337.36)" />
            <path
                d="M112.364,356.028h2a.333.333,0,0,0,.333-.333v-3.327a.333.333,0,0,0-.333-.333h-2a.333.333,0,0,0-.333.333V355.7A.333.333,0,0,0,112.364,356.028Zm.333-3.327h1.331v1H112.7Zm0,1.664h1.331v1H112.7Zm0,0"
                data-name="Path 26603" fill="#313033" id="Path_26603"
                transform="translate(-100.566 -337.36)" />
            <path
                d="M24.109,9.687V8.02h.665V7.355h-.665V2.031h.665V1.366h-.665V.7h.665V.035H8.8V.7h.665v.665H8.8v.665h.665V7.355H8.8V8.02h.665c.049,1.558-.016,9.344,0,12.015h14.66C24.145,17.364,24.095,11.514,24.109,9.687Zm-2,9.647H19.451v-.665h2.662Zm-2-1.331V15.34h1.331V18Zm3.327-2.662h-.665v.665h.665v3.327h-.665v-1A.333.333,0,0,0,22.446,18h-.333V15.008a.333.333,0,0,0-.333-.333h-2a.333.333,0,0,0-.333.333V18h-.333a.333.333,0,0,0-.333.333v1H10.135V14.01H23.444Zm0-2H18.786v-.665H18.12v.665H10.135V8.02H23.444Zm0-7.32h-.665V6.69h.665v.665H10.135V4.693H10.8V4.028h-.665v-2H23.444Zm0-4.658H10.135V.7H23.444Z"
                data-name="Path 26604" fill="#313033" id="Path_26604" transform="translate(0)" />
            <path d="M280.031,80.035h.665V80.7h-.665Zm0,0" data-name="Path 26605" fill="#313033"
                id="Path_26605" transform="translate(-261.578 -76.673)" />
        </g>
    </g>
</svg>
