<svg height="24" viewBox="0 0 24 24" width="24" xmlns="http://www.w3.org/2000/svg">
    <g data-name="Group 24720" id="Group_24720" transform="translate(907 -6788)">
        <g id="bath" transform="translate(-913 6744)">
            <g data-name="Group 23075" id="Group_23075" transform="translate(8.323 55.86)">
                <path d="M16,264H35.355v.968H16Z" data-name="Path 26464" fill="#e0b251"
                    id="Path_26464" transform="translate(-16 -263.032)" />
                <path d="M56,240h1.29v.968H56Z" data-name="Path 26465" fill="#e0b251"
                    id="Path_26465" transform="translate(-54.387 -240)" />
            </g>
            <g data-name="Group 23076" id="Group_23076" transform="translate(8 48)">
                <path
                    d="M73.735,318.285H87.614c.958,0,1.735-1.407,1.735-3.142S88.572,312,87.614,312H73.735c-.958,0-1.735,1.407-1.735,3.143S72.777,318.285,73.735,318.285Z"
                    data-name="Path 26467" fill="#e0b251" id="Path_26467"
                    transform="translate(-70.711 -302.674)" />
                <path
                    d="M27.677,56.5H11.548v-.654a.325.325,0,0,0-.323-.327H10.9v-.981h.645v.327a.323.323,0,1,0,.645,0V53.558a.323.323,0,1,0-.645,0v.327H10.9V49.962a1.3,1.3,0,0,1,1.29-1.308h1.29a1.3,1.3,0,0,1,1.29,1.308v.028a1.957,1.957,0,0,0-1.613,1.934.325.325,0,0,0,.323.327H16.71a.325.325,0,0,0,.323-.327,1.957,1.957,0,0,0-1.613-1.934v-.028A1.951,1.951,0,0,0,13.484,48h-1.29a1.951,1.951,0,0,0-1.935,1.962v5.558H9.935a.325.325,0,0,0-.323.327V56.5H8.323A.325.325,0,0,0,8,56.827v.981a.325.325,0,0,0,.323.327H9.29v3.923A1.957,1.957,0,0,0,10.9,63.991v.682a.323.323,0,1,0,.645,0v-.654h12.9v.654a.323.323,0,1,0,.645,0v-.682a1.957,1.957,0,0,0,1.613-1.934V58.135h.968A.325.325,0,0,0,28,57.808v-.981A.325.325,0,0,0,27.677,56.5ZM15.1,50.615a1.3,1.3,0,0,1,1.25.981h-2.5a1.3,1.3,0,0,1,1.25-.981Zm-4.839,5.558H10.9V56.5h-.645Zm15.806,5.885a1.3,1.3,0,0,1-1.29,1.308H11.226a1.3,1.3,0,0,1-1.29-1.308V58.135H26.065Zm1.29-4.577H8.645v-.327h18.71Z"
                    data-name="Path 26466" fill="#313033" id="Path_26466"
                    transform="translate(-8 -48)" />
                <path d="M160.323,312.645h.323a.323.323,0,1,0,0-.645h-.323a.323.323,0,0,0,0,.645Z"
                    data-name="Path 26468" fill="#e0b251" id="Path_26468"
                    transform="translate(-153.871 -301.206)" />
            </g>
        </g>
    </g>
</svg>
