<svg height="24" viewBox="0 0 24 24" width="24" xmlns="http://www.w3.org/2000/svg">
    <g data-name="Group 24466" id="Group_24466" transform="translate(-494 -1561)">
        <g data-name="bed (1)" id="bed_1_" transform="translate(488 1486)">
            <g data-name="Group 23073" id="Group_23073" transform="translate(8.968 87.07)">
                <path d="M449.29,384v1.613h-.968L448,384Z" data-name="Path 26460" fill="#e0b251"
                    id="Path_26460" transform="translate(-431.226 -378.839)" />
                <path d="M33.29,384l-.323,1.613H32V384Z" data-name="Path 26461" fill="#e0b251"
                    id="Path_26461" transform="translate(-32 -378.839)" />
                <path
                    d="M50.065,256.968v2.9H32v-2.9a.968.968,0,0,1,.968-.968H49.1A.968.968,0,0,1,50.065,256.968Z"
                    data-name="Path 26462" fill="#e0b251" id="Path_26462"
                    transform="translate(-32 -256)" />
            </g>
            <path
                d="M27.677,90.625h-.323V88.049a1.291,1.291,0,0,0-1.29-1.288V81.288A1.291,1.291,0,0,0,24.774,80H11.226a1.291,1.291,0,0,0-1.29,1.288v5.473a1.291,1.291,0,0,0-1.29,1.288v2.576H8.323A.322.322,0,0,0,8,90.947v1.288a.322.322,0,0,0,.323.322h.323v1.288a.322.322,0,0,0,.323.322h.968a.322.322,0,0,0,.316-.259l.271-1.351H25.477l.271,1.351a.322.322,0,0,0,.316.259h.968a.322.322,0,0,0,.323-.322V92.557h.323A.322.322,0,0,0,28,92.235V90.947A.322.322,0,0,0,27.677,90.625Zm-17.1-9.337a.645.645,0,0,1,.645-.644H24.774a.645.645,0,0,1,.645.644v5.473h-.645V85.473a1.291,1.291,0,0,0-1.29-1.288H19.613a1.291,1.291,0,0,0-1.29,1.288v1.288h-.645V85.473a1.291,1.291,0,0,0-1.29-1.288H12.516a1.291,1.291,0,0,0-1.29,1.288v1.288h-.645Zm13.548,4.186v1.288H18.968V85.473a.645.645,0,0,1,.645-.644h3.871A.645.645,0,0,1,24.129,85.473Zm-7.1,0v1.288H11.871V85.473a.645.645,0,0,1,.645-.644h3.871A.645.645,0,0,1,17.032,85.473ZM9.29,88.049a.645.645,0,0,1,.645-.644H26.065a.645.645,0,0,1,.645.644v2.576H9.29Zm.381,5.474H9.29v-.966h.574Zm17.039,0h-.381l-.194-.966h.574Zm.645-1.61H8.645v-.644h18.71Z"
                data-name="Path 26463" fill="#313033" id="Path_26463" />
        </g>
    </g>
</svg>
