<svg height="24" viewBox="0 0 24 24" width="24" xmlns="http://www.w3.org/2000/svg">
    <g data-name="Group 24643" id="Group_24643" transform="translate(1739 -6293)">
        <g id="chat-bubble" transform="translate(-1736.753 6295.247)">
            <path
                d="M-712.246-6403.247a9.985,9.985,0,0,1-5.121-1.418l-4.053,1.385a.624.624,0,0,1-.2.034.621.621,0,0,1-.442-.184.63.63,0,0,1-.15-.643l1.385-4.051a9.993,9.993,0,0,1-1.419-5.122,10.012,10.012,0,0,1,10-10,10.011,10.011,0,0,1,10,10A10.011,10.011,0,0,1-712.246-6403.247Zm5.09-10.923a.913.913,0,0,0-.652.271.918.918,0,0,0-.271.653.916.916,0,0,0,.271.653.911.911,0,0,0,.653.271.916.916,0,0,0,.653-.271.917.917,0,0,0,.271-.653.918.918,0,0,0-.271-.653A.917.917,0,0,0-707.156-6414.17Zm-4.778,0a.917.917,0,0,0-.653.271.918.918,0,0,0-.27.653.917.917,0,0,0,.27.653.916.916,0,0,0,.653.271.916.916,0,0,0,.653-.271.917.917,0,0,0,.27-.653.918.918,0,0,0-.27-.653A.913.913,0,0,0-711.935-6414.17Zm-4.779,0a.917.917,0,0,0-.654.271.918.918,0,0,0-.27.653.917.917,0,0,0,.27.653.918.918,0,0,0,.654.271.916.916,0,0,0,.653-.271.917.917,0,0,0,.271-.653.918.918,0,0,0-.271-.653A.917.917,0,0,0-716.714-6414.17Z"
                data-name="Subtraction 10" fill="#392694" id="Subtraction_10"
                transform="translate(722.246 6423.246)" />
        </g>
    </g>
</svg>
