<svg height="24" viewBox="0 0 24 24" width="24" xmlns="http://www.w3.org/2000/svg">
    <g data-name="Group 24726" id="Group_24726" transform="translate(1063 -6788)">
        <g id="Calendar" transform="translate(-1063 6788)">
            <path
                d="M20.993,9h-2v1.012a1,1,0,1,1-2,0V9H13.662v1.012a1,1,0,1,1-2,0V9H8.331v1.012a1,1,0,1,1-2,0V9h-2A1.341,1.341,0,0,0,3,10.349v2.7H22.325v-2.7A1.341,1.341,0,0,0,20.993,9Z"
                data-name="Path 26529" fill="#e0b251" id="Path_26529"
                transform="translate(-0.663 -4.639)" />
            <rect data-name="Rectangle 5902" fill="#e0b251" height="1.667" id="Rectangle_5902"
                rx="0.833" transform="translate(8.695 10.453)" width="2.5" />
            <rect data-name="Rectangle 5903" fill="#e0b251" height="1.667" id="Rectangle_5903"
                rx="0.833" transform="translate(4.62 10.453)" width="2.5" />
            <rect data-name="Rectangle 5904" fill="#e0b251" height="1.667" id="Rectangle_5904"
                rx="0.833" transform="translate(16.286 10.453)" width="2.5" />
            <rect data-name="Rectangle 5905" fill="#e0b251" height="1.667" id="Rectangle_5905"
                rx="0.833" transform="translate(8.695 13.634)" width="2.5" />
            <rect data-name="Rectangle 5906" fill="#e0b251" height="1.667" id="Rectangle_5906"
                rx="0.833" transform="translate(4.62 13.634)" width="2.5" />
            <rect data-name="Rectangle 5907" fill="#e0b251" height="2.5" id="Rectangle_5907" rx="1"
                transform="translate(8.786 16.286)" width="2.5" />
            <rect data-name="Rectangle 5908" fill="#e0b251" height="1.667" id="Rectangle_5908"
                rx="0.833" transform="translate(12.12 10.453)" width="2.5" />
            <rect data-name="Rectangle 5909" fill="#e0b251" height="1.667" id="Rectangle_5909"
                rx="0.833" transform="translate(12.805 13.634)" width="2.5" />
            <rect data-name="Rectangle 5910" fill="#e0b251" height="1.667" id="Rectangle_5910"
                rx="0.5" transform="translate(4.62 16.925)" width="2.5" />
            <circle cx="4.167" cy="4.167" data-name="Ellipse 60" fill="#e0b251" id="Ellipse_60"
                r="4.167" transform="translate(13.547 13.547)" />
            <g data-name="Group 23092" id="Group_23092" transform="translate(2 2)">
                <path
                    d="M20.333,4H18.667V3.332a1.333,1.333,0,0,0-2.667,0V4H13.333V3.332a1.333,1.333,0,0,0-2.667,0V4H8V3.332a1.333,1.333,0,0,0-2.667,0V4H3.667A1.666,1.666,0,0,0,2,5.664V18.985a1.666,1.666,0,0,0,1.667,1.665H13a.333.333,0,1,0,0-.666H3.667a1,1,0,0,1-1-1V8.661H21.333v5.662a.333.333,0,0,0,.667,0V5.664A1.666,1.666,0,0,0,20.333,4Zm-3.667-.666a.667.667,0,0,1,1.333,0v2a.667.667,0,0,1-1.333,0Zm-5.333,0a.667.667,0,0,1,1.333,0v2a.667.667,0,0,1-1.333,0ZM6,3.332a.667.667,0,0,1,1.333,0v2A.667.667,0,0,1,6,5.33ZM21.333,7.995H2.667V5.664a1,1,0,0,1,1-1H5.333V5.33A1.333,1.333,0,0,0,8,5.33V4.664h2.667V5.33a1.333,1.333,0,0,0,2.667,0V4.664H16V5.33a1.333,1.333,0,0,0,2.667,0V4.664h1.667a1,1,0,0,1,1,1Z"
                    data-name="Path 26530" fill="#313033" id="Path_26530"
                    transform="translate(-2 -2)" />
                <path
                    d="M24.7,27.675A.675.675,0,0,0,24.024,27H22.675a.675.675,0,0,0-.675.675v1.012a.675.675,0,0,0,.675.675h1.349a.675.675,0,0,0,.675-.675Zm-2.024,1.012V27.675h1.349v1.012Z"
                    data-name="Path 26531" fill="#313033" id="Path_26531"
                    transform="translate(-15.346 -18.68)" />
                <path
                    d="M12.7,27.675A.675.675,0,0,0,12.024,27H10.675a.675.675,0,0,0-.675.675v1.012a.675.675,0,0,0,.675.675h1.349a.675.675,0,0,0,.675-.675Zm-2.024,1.012V27.675h1.349v1.012Z"
                    data-name="Path 26532" fill="#313033" id="Path_26532"
                    transform="translate(-7.38 -18.68)" />
                <path
                    d="M48.024,29.361a.675.675,0,0,0,.675-.675V27.675A.675.675,0,0,0,48.024,27H46.675a.675.675,0,0,0-.675.675v1.012a.675.675,0,0,0,.675.675Zm-1.349-1.687h1.349v1.012H46.675Z"
                    data-name="Path 26533" fill="#313033" id="Path_26533"
                    transform="translate(-31.714 -18.68)" />
                <path
                    d="M24.7,36.675A.675.675,0,0,0,24.024,36H22.675a.675.675,0,0,0-.675.675v1.012a.675.675,0,0,0,.675.675h1.349a.675.675,0,0,0,.675-.675Zm-2.024,1.012V36.675h1.349v1.012Z"
                    data-name="Path 26534" fill="#313033" id="Path_26534"
                    transform="translate(-15.346 -24.685)" />
                <path
                    d="M12.7,36.675A.675.675,0,0,0,12.024,36H10.675a.675.675,0,0,0-.675.675v1.012a.675.675,0,0,0,.675.675h1.349a.675.675,0,0,0,.675-.675Zm-2.024,1.012V36.675h1.349v1.012Z"
                    data-name="Path 26535" fill="#313033" id="Path_26535"
                    transform="translate(-7.38 -24.685)" />
                <path
                    d="M24.024,45H22.675a.7.7,0,0,0-.675.714v1.071a.7.7,0,0,0,.675.714h1.349a.7.7,0,0,0,.675-.714V45.714A.7.7,0,0,0,24.024,45Zm-1.349,1.786V45.714h1.349v1.071Z"
                    data-name="Path 26536" fill="#313033" id="Path_26536"
                    transform="translate(-15.214 -30.714)" />
                <path
                    d="M34.675,29.361h1.349a.675.675,0,0,0,.675-.675V27.675A.675.675,0,0,0,36.024,27H34.675a.675.675,0,0,0-.675.675v1.012A.675.675,0,0,0,34.675,29.361Zm0-1.687h1.349v1.012H34.675Z"
                    data-name="Path 26537" fill="#313033" id="Path_26537"
                    transform="translate(-23.88 -18.68)" />
                <path
                    d="M34,37.687a.675.675,0,0,0,.675.675.337.337,0,1,0,0-.675V36.675h1.349a.337.337,0,1,0,0-.675H34.675a.675.675,0,0,0-.675.675Z"
                    data-name="Path 26538" fill="#313033" id="Path_26538"
                    transform="translate(-23.35 -24.685)" />
                <path
                    d="M12.024,45H10.675a.675.675,0,0,0-.675.675v1.012a.675.675,0,0,0,.675.675h1.349a.675.675,0,0,0,.675-.675V45.675A.675.675,0,0,0,12.024,45Zm-1.349,1.687V45.675h1.349v1.012Z"
                    data-name="Path 26539" fill="#313033" id="Path_26539"
                    transform="translate(-7.38 -30.689)" />
                <path
                    d="M40.385,36a4.385,4.385,0,1,0,4.385,4.385A4.385,4.385,0,0,0,40.385,36Zm0,8.1A3.711,3.711,0,1,1,44.1,40.385,3.711,3.711,0,0,1,40.385,44.1Z"
                    data-name="Path 26540" fill="#313033" id="Path_26540"
                    transform="translate(-24.77 -24.77)" />
                <path
                    d="M46.15,44.614l-2.624,2.624-1.192-1.193a.337.337,0,1,0-.477.477l1.431,1.431a.337.337,0,0,0,.477,0l2.862-2.862a.337.337,0,1,0-.477-.477Z"
                    data-name="Path 26541" fill="#313033" id="Path_26541"
                    transform="translate(-28.586 -30.413)" />
            </g>
        </g>
    </g>
</svg>
