<svg height="24" viewBox="0 0 24 24" width="24" xmlns="http://www.w3.org/2000/svg">
    <g data-name="Group 24407" id="Group_24407" transform="translate(1739 -6293)">
        <g id="chat-bubble" transform="translate(-1736.753 6295.247)">
            <path
                d="M.625,20a.625.625,0,0,1-.591-.827l1.385-4.051a10.017,10.017,0,1,1,3.46,3.46L.827,19.966a.625.625,0,0,1-.2.034Zm4.331-2.731a.629.629,0,0,1,.337.1,8.769,8.769,0,1,0-2.661-2.661.625.625,0,0,1,.065.539L1.628,18.372,4.754,17.3a.623.623,0,0,1,.2-.034Z"
                data-name="Path 30485" fill="#abaab3" id="Path_30485" />
            <path d="M226.136,269.74a.924.924,0,1,1-1.307,0,.924.924,0,0,1,1.307,0" fill="#abaab3"
                id="path-1_53_" transform="translate(-215.171 -260.394)" />
            <path d="M151.283,269.74a.924.924,0,1,1-1.307,0,.924.924,0,0,1,1.307,0" fill="#abaab3"
                id="path-1_52_" transform="translate(-145.097 -260.394)" />
            <path d="M300.988,269.74a.924.924,0,1,1-1.307,0,.924.924,0,0,1,1.307,0" fill="#abaab3"
                id="path-1_51_" transform="translate(-285.244 -260.394)" />
        </g>
    </g>
</svg>
