<svg height="28" id="قصور" viewBox="0 0 28 28" width="28" xmlns="http://www.w3.org/2000/svg">
    <g id="house" transform="translate(-6 -6.002)">
        <g data-name="Group 24033" id="Group_24033" transform="translate(8.387 8.389)">
            <path d="M266.064,50.2V57.29H256V50.2l5.032-2.2Z" data-name="Path 29709" fill="#392694"
                id="Path_29709" transform="translate(-244.387 -46.452)" />
            <path d="M16,472H39.226v1.161H16Z" data-name="Path 29710" fill="#eae6ff" id="Path_29710"
                transform="translate(-16 -449.935)" />
            <path d="M32,240H53.677v1.161H32Z" data-name="Path 29711" fill="#eae6ff" id="Path_29711"
                transform="translate(-31.226 -229.161)" />
            <path d="M48,264H58.065v10.065H48Z" data-name="Path 29712" fill="#392694"
                id="Path_29712" transform="translate(-46.452 -252)" />
            <path d="M80,344h6.968v6.194H80Z" data-name="Path 29713" fill="#eae6ff" id="Path_29713"
                transform="translate(-76.903 -328.129)" />
            <path d="M72,320h7.742v1.161H72Z" data-name="Path 29714" fill="#eae6ff" id="Path_29714"
                transform="translate(-69.29 -305.29)" />
            <path d="M256,264h10.064v10.065H256Z" data-name="Path 29715" fill="#392694"
                id="Path_29715" transform="translate(-244.387 -252)" />
            <path d="M257.548,79.5,256,80.177" data-name="Path 29716" fill="none" id="Path_29716"
                transform="translate(-244.387 -76.427)" />
            <path d="M433.548,80.177,432,79.5" data-name="Path 29717" fill="none" id="Path_29717"
                transform="translate(-411.871 -76.427)" />
            <g data-name="Group 24032" id="Group_24032" transform="translate(12.774 5.032)">
                <path d="M280,360h3.484v5.419H280Z" data-name="Path 29718" fill="#eae6ff"
                    id="Path_29718" transform="translate(-280 -348.387)" />
                <path d="M376,360h3.1v2.71H376Z" data-name="Path 29719" fill="#eae6ff"
                    id="Path_29719" transform="translate(-371.355 -348.387)" />
                <path d="M376,120h3.1v2.71H376Z" data-name="Path 29720" fill="#eae6ff"
                    id="Path_29720" transform="translate(-371.355 -120)" />
                <path d="M280,120h3.1v2.71H280Z" data-name="Path 29721" fill="#eae6ff"
                    id="Path_29721" transform="translate(-280 -120)" />
            </g>
            <path d="M244.387,18.71v1.548l-6.194-2.71L232,20.258V18.71L238.194,16Z"
                data-name="Path 29722" fill="#eae6ff" id="Path_29722"
                transform="translate(-221.548 -16)" />
            <path d="M32,160H42.839v1.161H32Z" data-name="Path 29723" fill="#eae6ff" id="Path_29723"
                transform="translate(-31.226 -153.032)" />
        </g>
        <g data-name="Group 24034" id="Group_24034" transform="translate(8 8.002)">
            <path
                d="M31.613,30.067H30.452v-9.29h.387a.387.387,0,0,0,.387-.387V19.228a.387.387,0,0,0-.387-.387h-.387v-6.11L31.07,13a.387.387,0,0,0,.542-.355V11.1a.387.387,0,0,0-.232-.355l-6.194-2.71a.39.39,0,0,0-.311,0l-6.194,2.71a.387.387,0,0,0-.232.355v1.548a.387.387,0,0,0,.542.355l.619-.271V14.97H9.161a.387.387,0,0,0-.387.387v1.161a.387.387,0,0,0,.387.387h1.161v1.935H9.161a.387.387,0,0,0-.387.387v1.161a.387.387,0,0,0,.387.387h.387v9.29H8.387A.387.387,0,0,0,8,30.454v1.161A.387.387,0,0,0,8.387,32H31.613A.387.387,0,0,0,32,31.615V30.454A.387.387,0,0,0,31.613,30.067ZM19.226,12.056v-.7l5.806-2.54,5.806,2.54v.7l-.622-.272h0l-5.027-2.2a.388.388,0,0,0-.311,0l-5.027,2.2h0Zm10.452.337v6.449h-9.29V12.393l4.645-2.032ZM9.548,16.131v-.387H19.613v.387Zm10.065.774v1.935H18.065V16.906Zm-2.323,0v1.935H15.742V16.906Zm-2.323,0v1.935H13.419V16.906Zm-2.323,0v1.935H11.1V16.906Zm-3.1,2.71h20.9V20H9.548Zm15.1,5.032H21.161a.387.387,0,0,0-.387.387v5.032h-.387v-9.29h9.29v9.29H25.032V25.035A.387.387,0,0,0,24.645,24.648Zm-.387.774v4.645h-2.71V25.422Zm-5.419-2.71H11.1a.387.387,0,0,0-.387.387V24.26a.387.387,0,0,0,.387.387v5.419h-.774v-9.29h9.29v9.29h-.774V24.648a.387.387,0,0,0,.387-.387V23.1A.387.387,0,0,0,18.839,22.712Zm-7.355,1.161v-.387h6.968v.387Zm6.581.774v5.419H11.871V24.648Zm13.161,6.581H8.774v-.387H31.226Z"
                data-name="Path 29724" fill="#313033" id="Path_29724"
                transform="translate(-8 -8.002)" />
            <path
                d="M368.387,355.484h3.1a.387.387,0,0,0,.387-.387v-2.71a.387.387,0,0,0-.387-.387h-3.1a.387.387,0,0,0-.387.387v2.71A.387.387,0,0,0,368.387,355.484Zm.387-2.71H371.1v1.935h-2.323Z"
                data-name="Path 29725" fill="#313033" id="Path_29725"
                transform="translate(-350.581 -335.355)" />
            <path
                d="M368.387,115.484h3.1a.387.387,0,0,0,.387-.387v-2.71a.387.387,0,0,0-.387-.387h-3.1a.387.387,0,0,0-.387.387v2.71A.387.387,0,0,0,368.387,115.484Zm.387-2.71H371.1v1.935h-2.323Z"
                data-name="Path 29726" fill="#313033" id="Path_29726"
                transform="translate(-350.581 -106.968)" />
            <path
                d="M272.387,115.484h3.1a.387.387,0,0,0,.387-.387v-2.71a.387.387,0,0,0-.387-.387h-3.1a.387.387,0,0,0-.387.387v2.71A.387.387,0,0,0,272.387,115.484Zm.387-2.71H275.1v1.935h-2.323Z"
                data-name="Path 29727" fill="#313033" id="Path_29727"
                transform="translate(-259.226 -106.968)" />
            <path
                d="M320.387,401.548a.387.387,0,0,0,.387-.387v-.774a.387.387,0,0,0-.774,0v.774A.387.387,0,0,0,320.387,401.548Z"
                data-name="Path 29728" fill="#313033" id="Path_29728"
                transform="translate(-304.903 -381.032)" />
        </g>
    </g>
</svg>
