<svg height="24" viewBox="0 0 24 24" width="24" xmlns="http://www.w3.org/2000/svg">
    <g data-name="Group 24625" id="Group_24625" transform="translate(-290 -465)">
        <g data-name="information (4)" id="information_4_" transform="translate(292 467)">
            <g data-name="Group 24624" id="Group_24624">
                <g data-name="Group 24623" id="Group_24623">
                    <path
                        d="M215,85.333a1.67,1.67,0,1,0,1.67,1.67A1.672,1.672,0,0,0,215,85.333Zm0,2.505a.835.835,0,1,1,.835-.835A.836.836,0,0,1,215,87.838Z"
                        data-name="Path 30624" fill="#392694" id="Path_30624"
                        transform="translate(-205.003 -82.001)" />
                    <path
                        d="M195.758,192h-3.34a.417.417,0,0,0-.418.418v1.67a.417.417,0,0,0,.418.418h.418v6.263a.417.417,0,0,0,.418.418h2.505a.417.417,0,0,0,.418-.418v-8.351A.417.417,0,0,0,195.758,192Zm-.418,8.351h-1.67v-6.263a.417.417,0,0,0-.418-.418h-.418v-.835h2.505v7.516Z"
                        data-name="Path 30625" fill="#392694" id="Path_30625"
                        transform="translate(-184.504 -184.513)" />
                    <path
                        d="M10,0A10,10,0,1,0,20,10,10.011,10.011,0,0,0,10,0Zm0,19.167A9.167,9.167,0,1,1,19.167,10,9.177,9.177,0,0,1,10,19.167Z"
                        data-name="Path 30626" fill="#392694" id="Path_30626" />
                </g>
            </g>
        </g>
    </g>
</svg>
