<svg data-name="Component 25 – 12" height="32" id="Component_25_12" viewBox="0 0 32 32" width="32"
    xmlns="http://www.w3.org/2000/svg">
    <defs>
        <linearGradient gradientUnits="objectBoundingBox" id="linear-gradient" x1="0.828" x2="0.121"
            y1="0.084" y2="0.901">
            <stop offset="0" stop-color="#bd37a6" />
            <stop offset="0.498" stop-color="#dc858c" />
            <stop offset="1" stop-color="#fcd472" />
        </linearGradient>
    </defs>
    <g data-name="Group 23403" id="Group_23403" transform="translate(4 4)">
        <path
            d="M476.739,211.451a1.411,1.411,0,1,0,1.411,1.411A1.411,1.411,0,0,0,476.739,211.451Zm-6.273,1.809a5.927,5.927,0,1,0,5.927,5.927A5.934,5.934,0,0,0,470.466,213.26Zm0,9.724a3.8,3.8,0,1,1,3.8-3.8A3.8,3.8,0,0,1,470.466,222.984Zm11.96-8.723a7.23,7.23,0,0,0-7.23-7.229h-9.541a7.229,7.229,0,0,0-7.229,7.229V223.8a7.229,7.229,0,0,0,7.229,7.229H475.2a7.23,7.23,0,0,0,7.23-7.229Zm-2.264,9.542a4.965,4.965,0,0,1-4.965,4.965h-9.541a4.965,4.965,0,0,1-4.965-4.965v-9.542a4.965,4.965,0,0,1,4.965-4.965H475.2a4.965,4.965,0,0,1,4.965,4.965Z"
            data-name="Path 27044" fill="url(#linear-gradient)" id="Path_27044"
            transform="translate(-458.426 -207.032)" />
    </g>
</svg>
