<svg height="24" viewBox="0 0 24 24" width="24" xmlns="http://www.w3.org/2000/svg">
    <g data-name="Group 24405" id="Group_24405" transform="translate(1694 -6363)">
        <path
            d="M19.725,49.245a.633.633,0,0,0-.582-.062l-6.018,2.37-6.018-2.37a.631.631,0,0,0-.464,0L.393,51.645A.616.616,0,0,0,0,52.216V64.523a.614.614,0,0,0,.275.51.634.634,0,0,0,.582.062l6.018-2.37,6.018,2.37a.631.631,0,0,0,.464,0l6.25-2.461A.616.616,0,0,0,20,62.062V49.755a.614.614,0,0,0-.275-.51ZM7.5,50.664l5,1.969V63.614l-5-1.969ZM1.25,52.633l5-1.969V61.645l-5,1.97Zm17.5,9.013-5,1.969V52.633l5-1.969Z"
            data-name="map (2)" fill="#abaab3" id="map_2_" transform="translate(-1692 6317.861)" />
    </g>
</svg>
