<svg height="28" viewBox="0 0 28 28" width="28" xmlns="http://www.w3.org/2000/svg">
    <g data-name="Group 24618" id="Group_24618" transform="translate(309 -7180)">
        <g id="office-building" transform="translate(-307.406 7181.705)">
            <path
                d="M9.636,24H0V.678A.658.658,0,0,1,.636,0h10.1a.657.657,0,0,1,.633.677V6.853h6.237a.654.654,0,0,1,.633.674V24h-6.87v0Z"
                data-name="Union 41" fill="none" id="Union_41" stroke="#313033" stroke-width="1"
                transform="translate(4.406 0.295)" />
            <path
                d="M320.287,183.419h-5.051v-2.48h5.051a.384.384,0,0,1,.42.335v1.811A.385.385,0,0,1,320.287,183.419Z"
                data-name="Path 30024" fill="none" id="Path_30024" stroke="#313033" stroke-width="1"
                transform="translate(-299.029 -171.802)" />
            <path
                d="M320.287,278h-5.051v-2.48h5.051a.384.384,0,0,1,.42.335v1.811A.385.385,0,0,1,320.287,278Z"
                data-name="Path 30025" fill="none" id="Path_30025" stroke="#313033" stroke-width="1"
                transform="translate(-299.029 -261.757)" />
            <path
                d="M320.287,372.588h-5.051v-2.48h5.051a.384.384,0,0,1,.42.335v1.812A.384.384,0,0,1,320.287,372.588Z"
                data-name="Path 30026" fill="none" id="Path_30026" stroke="#313033" stroke-width="1"
                transform="translate(-299.029 -351.711)" />
            <path
                d="M171.76,364.7h-2.95a.218.218,0,0,0-.218.218v4.656h3.386V364.92A.218.218,0,0,0,171.76,364.7Z"
                data-name="Path 30031" fill="none" id="Path_30031" stroke="#313033" stroke-width="1"
                transform="translate(-160.363 -346.542)" />
            <g data-name="Group 24116" id="Group_24116" transform="translate(5.703 2.201)">
                <path
                    d="M187.469,41.148h-1.257a.218.218,0,0,1-.218-.218V39.673a.218.218,0,0,1,.218-.218h1.257a.218.218,0,0,1,.218.218V40.93A.218.218,0,0,1,187.469,41.148Z"
                    data-name="Path 30032" fill="none" id="Path_30032" stroke="#313033"
                    stroke-width="1" transform="translate(-182.774 -39.455)" />
                <path
                    d="M253.668,41.148h-1.257a.218.218,0,0,1-.218-.218V39.673a.218.218,0,0,1,.218-.218h1.257a.218.218,0,0,1,.218.218V40.93A.218.218,0,0,1,253.668,41.148Z"
                    data-name="Path 30033" fill="none" id="Path_30033" stroke="#313033"
                    stroke-width="1" transform="translate(-245.753 -39.455)" />
                <path
                    d="M187.469,122.459h-1.257a.218.218,0,0,1-.218-.218v-1.257a.218.218,0,0,1,.218-.218h1.257a.218.218,0,0,1,.218.218v1.257A.218.218,0,0,1,187.469,122.459Z"
                    data-name="Path 30034" fill="none" id="Path_30034" stroke="#313033"
                    stroke-width="1" transform="translate(-182.774 -116.811)" />
                <path
                    d="M253.668,122.459h-1.257a.218.218,0,0,1-.218-.218v-1.257a.218.218,0,0,1,.218-.218h1.257a.218.218,0,0,1,.218.218v1.257A.218.218,0,0,1,253.668,122.459Z"
                    data-name="Path 30035" fill="none" id="Path_30035" stroke="#313033"
                    stroke-width="1" transform="translate(-245.753 -116.811)" />
                <path
                    d="M187.469,203.771h-1.257a.218.218,0,0,1-.218-.218V202.3a.218.218,0,0,1,.218-.218h1.257a.218.218,0,0,1,.218.218v1.257A.218.218,0,0,1,187.469,203.771Z"
                    data-name="Path 30036" fill="none" id="Path_30036" stroke="#313033"
                    stroke-width="1" transform="translate(-182.774 -194.168)" />
                <path
                    d="M253.668,203.771h-1.257a.218.218,0,0,1-.218-.218V202.3a.218.218,0,0,1,.218-.218h1.257a.218.218,0,0,1,.218.218v1.257A.218.218,0,0,1,253.668,203.771Z"
                    data-name="Path 30037" fill="none" id="Path_30037" stroke="#313033"
                    stroke-width="1" transform="translate(-245.753 -194.168)" />
                <path
                    d="M187.469,285.082h-1.257a.218.218,0,0,1-.218-.218v-1.257a.218.218,0,0,1,.218-.218h1.257a.218.218,0,0,1,.218.218v1.257A.218.218,0,0,1,187.469,285.082Z"
                    data-name="Path 30038" fill="none" id="Path_30038" stroke="#313033"
                    stroke-width="1" transform="translate(-182.774 -271.523)" />
                <path
                    d="M253.668,285.082h-1.257a.218.218,0,0,1-.218-.218v-1.257a.218.218,0,0,1,.218-.218h1.257a.218.218,0,0,1,.218.218v1.257A.218.218,0,0,1,253.668,285.082Z"
                    data-name="Path 30039" fill="none" id="Path_30039" stroke="#313033"
                    stroke-width="1" transform="translate(-245.753 -271.523)" />
                <path
                    d="M121.269,41.148h-1.257a.218.218,0,0,1-.218-.218V39.673a.218.218,0,0,1,.218-.218h1.257a.218.218,0,0,1,.218.218V40.93A.218.218,0,0,1,121.269,41.148Z"
                    data-name="Path 30040" fill="none" id="Path_30040" stroke="#313033"
                    stroke-width="1" transform="translate(-119.794 -39.455)" />
                <path
                    d="M121.269,122.459h-1.257a.218.218,0,0,1-.218-.218v-1.257a.218.218,0,0,1,.218-.218h1.257a.218.218,0,0,1,.218.218v1.257A.218.218,0,0,1,121.269,122.459Z"
                    data-name="Path 30041" fill="none" id="Path_30041" stroke="#313033"
                    stroke-width="1" transform="translate(-119.794 -116.811)" />
                <path
                    d="M121.269,203.771h-1.257a.218.218,0,0,1-.218-.218V202.3a.218.218,0,0,1,.218-.218h1.257a.218.218,0,0,1,.218.218v1.257A.218.218,0,0,1,121.269,203.771Z"
                    data-name="Path 30042" fill="none" id="Path_30042" stroke="#313033"
                    stroke-width="1" transform="translate(-119.794 -194.168)" />
                <path
                    d="M121.269,285.082h-1.257a.218.218,0,0,1-.218-.218v-1.257a.218.218,0,0,1,.218-.218h1.257a.218.218,0,0,1,.218.218v1.257A.218.218,0,0,1,121.269,285.082Z"
                    data-name="Path 30043" fill="none" id="Path_30043" stroke="#313033"
                    stroke-width="1" transform="translate(-119.794 -271.523)" />
            </g>
            <g data-name="Rectangle 13273" fill="#fff" id="Rectangle_13273" stroke="#313033"
                stroke-width="1" transform="translate(15.406 7.295)">
                <rect height="17" stroke="none" width="1" />
                <rect fill="none" height="16" x="0.5" y="0.5" />
            </g>
        </g>
    </g>
</svg>
