<svg height="24" viewBox="0 0 24 24" width="24" xmlns="http://www.w3.org/2000/svg">
    <g data-name="Group 24804" id="Group_24804" transform="translate(-192 -630)">
        <g data-name="pound (2)" id="pound_2_" transform="translate(133 632)">
            <g data-name="Group 24803" id="Group_24803" transform="translate(64)">
                <g data-name="Group 24802" id="Group_24802" transform="translate(0)">
                    <path
                        d="M70.234,12.467A6.234,6.234,0,1,0,64,6.234,6.24,6.24,0,0,0,70.234,12.467Zm0-11.636a5.4,5.4,0,1,1-5.4,5.4A5.409,5.409,0,0,1,70.234.831Z"
                        data-name="Path 30641" fill="#2a9426" id="Path_30641"
                        transform="translate(-64)" />
                    <path
                        d="M78.583,298.667H75.25a.416.416,0,1,0,0,.831h2.327l-5.244,5.23L69.294,301.7a.417.417,0,0,0-.589,0l-4.583,4.571a.416.416,0,0,0,.589.588L69,302.579l3.039,3.031a.417.417,0,0,0,.589,0l5.539-5.524v2.321a.417.417,0,0,0,.833,0v-3.325A.416.416,0,0,0,78.583,298.667Z"
                        data-name="Path 30642" fill="#2a9426" id="Path_30642"
                        transform="translate(-64 -286.978)" />
                    <path
                        d="M181.333,98.909a.415.415,0,0,0,.416.416h.159l-.53,1.061a.415.415,0,0,0,.372.6h2.493a.416.416,0,0,0,0-.831h-1.821l.416-.831h.574a.416.416,0,0,0,0-.831h-.659l-.365-.365a.769.769,0,0,1-.222-.538.761.761,0,0,1,.76-.76h.487a.416.416,0,0,1,.416.416.416.416,0,1,0,.831,0A1.248,1.248,0,0,0,183.411,96h-.487a1.585,1.585,0,0,0-1.288,2.516A.41.41,0,0,0,181.333,98.909Z"
                        data-name="Path 30643" fill="#2a9426" id="Path_30643"
                        transform="translate(-176.746 -92.247)" />
                </g>
            </g>
        </g>
    </g>
</svg>
