<svg height="24" viewBox="0 0 24 24" width="24" xmlns="http://www.w3.org/2000/svg">
    <g data-name="Group 24805" id="Group_24805" transform="translate(-231 -519)">
        <g id="pound" transform="translate(172 521)">
            <g data-name="Group 24801" id="Group_24801" transform="translate(64)">
                <g data-name="Group 24800" id="Group_24800" transform="translate(0)">
                    <path
                        d="M70.25,12.5A6.25,6.25,0,1,0,64,6.25,6.257,6.257,0,0,0,70.25,12.5Zm0-11.666A5.417,5.417,0,1,1,64.833,6.25,5.423,5.423,0,0,1,70.25.833Z"
                        data-name="Path 30638" fill="#a32015" id="Path_30638"
                        transform="translate(-64 0)" />
                    <path
                        d="M78.583,302.833a.416.416,0,0,0-.417.417v2.329l-5.539-5.54a.417.417,0,0,0-.589,0L69,303.077l-4.289-4.289a.417.417,0,0,0-.589.589l4.583,4.583a.416.416,0,0,0,.589,0l3.039-3.039,5.243,5.244H75.25a.417.417,0,1,0,0,.833h3.333a.416.416,0,0,0,.417-.417V303.25A.416.416,0,0,0,78.583,302.833Z"
                        data-name="Path 30639" fill="#a32015" id="Path_30639"
                        transform="translate(-64 -287)" />
                    <path
                        d="M181.333,98.917a.416.416,0,0,0,.417.417h.159l-.532,1.064a.416.416,0,0,0,.373.6h2.5a.417.417,0,1,0,0-.833h-1.826l.417-.833h.576a.417.417,0,0,0,0-.833h-.661l-.366-.366a.771.771,0,0,1-.223-.539.763.763,0,0,1,.762-.762h.488a.417.417,0,0,1,.417.417.417.417,0,1,0,.833,0,1.251,1.251,0,0,0-1.25-1.25h-.488a1.589,1.589,0,0,0-1.291,2.523A.411.411,0,0,0,181.333,98.917Z"
                        data-name="Path 30640" fill="#a32015" id="Path_30640"
                        transform="translate(-176.75 -92.25)" />
                </g>
            </g>
        </g>
    </g>
</svg>
