<svg height="24" viewBox="0 0 24 24" width="24" xmlns="http://www.w3.org/2000/svg">
    <g data-name="Group 24727" id="Group_24727" transform="translate(1115 -6788)">
        <g id="stairs" transform="translate(-1113 6790)">
            <g data-name="Group 23093" id="Group_23093">
                <g data-name="Path 26542" fill="#e0b251" id="Path_26542">
                    <path
                        d="M 19.41406059265137 19.5 L 0.5859400033950806 19.5 C 0.5385500192642212 19.5 0.5 19.46145057678223 0.5 19.41406059265137 L 0.5 14.70703029632568 C 0.5 14.65964031219482 0.5385500192642212 14.62108993530273 0.5859400033950806 14.62108993530273 L 4.707029819488525 14.62108993530273 L 5.207029819488525 14.62108993530273 L 5.207029819488525 14.12108993530273 L 5.207029819488525 10 C 5.207029819488525 9.952610015869141 5.245580196380615 9.914059638977051 5.292970180511475 9.914059638977051 L 9.414059638977051 9.914059638977051 L 9.914059638977051 9.914059638977051 L 9.914059638977051 9.414059638977051 L 9.914059638977051 5.292970180511475 C 9.914059638977051 5.245580196380615 9.952610015869141 5.207029819488525 10 5.207029819488525 L 14.12108993530273 5.207029819488525 L 14.62108993530273 5.207029819488525 L 14.62108993530273 4.707029819488525 L 14.62108993530273 0.5859400033950806 C 14.62108993530273 0.5385500192642212 14.65964031219482 0.5 14.70703029632568 0.5 L 19.41406059265137 0.5 C 19.46145057678223 0.5 19.5 0.5385500192642212 19.5 0.5859400033950806 L 19.5 19.41406059265137 C 19.5 19.46145057678223 19.46145057678223 19.5 19.41406059265137 19.5 Z"
                        stroke="none" />
                    <path
                        d="M 15.12108993530273 1 L 15.12108993530273 5.707030296325684 L 10.41405963897705 5.707030296325684 L 10.41405963897705 10.41405963897705 L 5.707030296325684 10.41405963897705 L 5.707030296325684 15.12108993530273 L 1 15.12108993530273 L 1 19 L 19 19 L 19 1 L 15.12108993530273 1 M 14.70702934265137 0 L 19.41406059265137 0 C 19.7376594543457 0 20 0.2623405456542969 20 0.5859394073486328 L 20 19.41406059265137 C 20 19.7376594543457 19.7376594543457 20 19.41406059265137 20 L 0.5859394073486328 20 C 0.2623405456542969 20 0 19.7376594543457 0 19.41406059265137 L 0 14.70702934265137 C 0 14.3834400177002 0.2623405456542969 14.12108993530273 0.5859394073486328 14.12108993530273 L 4.707030296325684 14.12108993530273 L 4.707030296325684 10 C 4.707030296325684 9.676409721374512 4.969380378723145 9.414059638977051 5.292969703674316 9.414059638977051 L 9.414059638977051 9.414059638977051 L 9.414059638977051 5.292969703674316 C 9.414059638977051 4.969380378723145 9.676409721374512 4.707030296325684 10 4.707030296325684 L 14.12108993530273 4.707030296325684 L 14.12108993530273 0.5859394073486328 C 14.12108993530273 0.2623405456542969 14.3834400177002 0 14.70702934265137 0 Z"
                        fill="#313033" stroke="none" />
                </g>
            </g>
        </g>
    </g>
</svg>
