<svg data-name="Component 27 – 12" height="32" id="Component_27_12" viewBox="0 0 32 32" width="32"
    xmlns="http://www.w3.org/2000/svg">
    <g data-name="Group 23406" id="Group_23406" transform="translate(4 6)">
        <g data-name="Group 23386" id="Group_23386" transform="translate(0 0)">
            <path
                d="M84.98,478.886a9.759,9.759,0,0,1-2.424.7c.391-.066.966-.782,1.2-1.071a4.531,4.531,0,0,0,.807-1.488c.021-.042.037-.1-.005-.128a.135.135,0,0,0-.128.011,12.291,12.291,0,0,1-2.88,1.115.19.19,0,0,1-.2-.053,2.345,2.345,0,0,0-.252-.26,5.083,5.083,0,0,0-1.395-.865,4.806,4.806,0,0,0-2.14-.349,5.068,5.068,0,0,0-2.029.58,5.255,5.255,0,0,0-1.638,1.353,5.126,5.126,0,0,0-.978,1.982,5.44,5.44,0,0,0-.052,2.092c.016.117.006.133-.1.117a15.319,15.319,0,0,1-9.9-5.1c-.115-.133-.178-.133-.273.011a5.121,5.121,0,0,0,.856,6c.194.186.393.372.608.541a4.979,4.979,0,0,1-1.91-.541c-.115-.074-.174-.031-.183.1a3.059,3.059,0,0,0,.031.574,5.125,5.125,0,0,0,3.127,4.092,2.915,2.915,0,0,0,.634.2,5.565,5.565,0,0,1-1.873.059c-.137-.027-.189.043-.137.176a5.281,5.281,0,0,0,3.934,3.333c.179.031.357.031.536.074-.011.016-.021.016-.032.032-.441.682-1.974,1.188-2.687,1.441a9.522,9.522,0,0,1-4.082.528c-.22-.033-.266-.031-.325,0s-.008.091.063.148c.278.186.561.351.85.51a13.391,13.391,0,0,0,2.728,1.1,14.409,14.409,0,0,0,14.107-3.337c2.891-2.906,3.9-6.914,3.9-10.927,0-.157.183-.244.293-.326a9.586,9.586,0,0,0,1.911-2.021.591.591,0,0,0,.118-.387v-.021C85.07,478.822,85.078,478.842,84.98,478.886Z"
                data-name="Path 27034" fill="#3cf" id="Path_27034"
                transform="translate(-61.07 -476.489)" />
        </g>
        <g data-name="Group 23387" id="Group_23387" transform="translate(6.98 19.871)">
            <path d="M70.518,502.578Z" data-name="Path 27035" fill="#3cf" id="Path_27035"
                transform="translate(-70.518 -502.578)" />
        </g>
        <g data-name="Group 23388" id="Group_23388" transform="translate(6.917 19.871)">
            <path d="M70.553,502.578c-.048,0-.6,0,0,0Z" data-name="Path 27036" fill="#3cf"
                id="Path_27036" transform="translate(-70.275 -502.578)" />
        </g>
        <g data-name="Group 23389" id="Group_23389" transform="translate(7.904 19.876)">
            <path d="M71.589,502.609c0-.061.643,0,0,0C71.589,502.577,71.668,502.609,71.589,502.609Z"
                data-name="Path 27037" fill="#3cf" id="Path_27037"
                transform="translate(-71.589 -502.582)" />
        </g>
        <g data-name="Group 23390" id="Group_23390" transform="translate(16.291 0.045)">
            <path d="M82.859,476.528a.132.132,0,0,1-.15,0Z" data-name="Path 27038" fill="#3cf"
                id="Path_27038" transform="translate(-82.709 -476.528)" />
        </g>
    </g>
</svg>
