<svg data-name="Component 26 – 10" height="32" id="Component_26_10" viewBox="0 0 32 32" width="32"
    xmlns="http://www.w3.org/2000/svg">
    <g data-name="Group 23405" id="Group_23405" transform="translate(4 8)">
        <g data-name="Group 23397" id="Group_23397" transform="translate(0 0)">
            <path
                d="M248.662,419.189a5.1,5.1,0,0,0-5.225-4.976H229.887a5.105,5.105,0,0,0-5.225,4.976v6.048a5.105,5.105,0,0,0,5.225,4.976h13.551a5.1,5.1,0,0,0,5.225-4.976Zm-8.549,3.329-5.4,2.823a.3.3,0,0,1-.446-.3v-5.794a.3.3,0,0,1,.453-.292l5.441,2.972A.33.33,0,0,1,240.113,422.518Z"
                data-name="Path 27042" fill="red" id="Path_27042"
                transform="translate(-224.662 -414.213)" />
        </g>
    </g>
</svg>
