<svg data-name="Layer 2" height="137.011" id="Layer_2" viewBox="0 0 253.546 137.011" width="253.546"
    xmlns="http://www.w3.org/2000/svg">
    <path
        d="M-152.765,329.993l-5.507,4.995-5.507-4.995a2.079,2.079,0,0,0-2.8,0l-5.507,4.995-5.507-4.995a2.079,2.079,0,0,0-2.8,0l-5.507,4.995-5.507-4.995a2.079,2.079,0,0,0-2.8,0l-5.507,4.995-5.5-4.995a2.092,2.092,0,0,0-2.953.144,2.085,2.085,0,0,0-.542,1.506,2.085,2.085,0,0,0,.686,1.447l6.912,6.244a2.092,2.092,0,0,0,2.8,0l5.507-4.995,5.507,4.995a2.092,2.092,0,0,0,2.8,0l5.507-4.995,5.507,4.995a2.092,2.092,0,0,0,2.8,0l5.507-4.995,5.507,4.995a2.092,2.092,0,0,0,1.4.537,2.1,2.1,0,0,0,1.4-.537l6.912-6.244a2.092,2.092,0,0,0,.144-2.953,2.092,2.092,0,0,0-2.953-.144Zm0,0"
        data-name="Path 811" fill="#fff" id="Path_811" transform="translate(402.815 -214.684)" />
    <path
        d="M-270.663,329.993l-5.5,4.995-5.513-4.995a2.079,2.079,0,0,0-2.8,0l-5.507,4.995-5.5-4.995a2.085,2.085,0,0,0-2.81,0l-5.507,4.995-5.5-4.995a2.085,2.085,0,0,0-2.81,0l-5.5,4.995-5.507-4.995a2.092,2.092,0,0,0-2.953.144,2.092,2.092,0,0,0,.144,2.953l6.912,6.244a2.092,2.092,0,0,0,2.8,0l5.507-5,5.507,5a2.092,2.092,0,0,0,2.8,0l5.507-5,5.507,5a2.092,2.092,0,0,0,2.8,0l5.507-5,5.507,5a2.1,2.1,0,0,0,1.4.537,2.1,2.1,0,0,0,1.4-.537l6.912-6.244a2.085,2.085,0,0,0,.686-1.447,2.085,2.085,0,0,0-.542-1.506A2.092,2.092,0,0,0-270.663,329.993Zm-8.56,0"
        data-name="Path 812" fill="#fff" id="Path_812" transform="translate(447.1 -214.684)" />
    <path d="M-328,317.63" data-name="Path 813" fill="#fff" id="Path_813"
        transform="translate(447.62 -210.245)" />
    <path
        d="M-448.085,329.993l-5.507,4.995-5.507-4.995a2.079,2.079,0,0,0-2.8,0l-5.507,4.995-5.507-4.995a2.079,2.079,0,0,0-2.8,0l-5.507,4.995-5.507-4.995a2.079,2.079,0,0,0-2.8,0l-5.507,4.995-5.507-4.995a2.092,2.092,0,0,0-2.953.144,2.091,2.091,0,0,0,.15,2.953l6.905,6.244a2.092,2.092,0,0,0,2.8,0l5.507-4.995,5.507,4.995a2.092,2.092,0,0,0,2.8,0l5.507-4.995,5.507,4.995a2.092,2.092,0,0,0,2.8,0l5.507-4.995,5.507,4.995a2.1,2.1,0,0,0,1.4.537,2.091,2.091,0,0,0,1.4-.537l6.912-6.244a2.092,2.092,0,0,0,.15-2.953,2.092,2.092,0,0,0-2.953-.144Z"
        data-name="Path 814" fill="#fff" id="Path_814" transform="translate(513.747 -214.684)" />
    <path
        d="M-325.265,205.406l-31.974-54.9a2.972,2.972,0,0,1,.662-4.146,2.972,2.972,0,0,1,4.152.662l34.128,58.691m36.838,47.346"
        data-name="Path 815" fill="#fff" id="Path_815" transform="translate(458.814 -145.697)" />
    <path
        d="M-412.741,253.084h-59.627a2.972,2.972,0,0,1-2.649-1.624,2.971,2.971,0,0,1,.245-3.1l73.32-101.235a2.972,2.972,0,0,1,3.321-1.211,2.972,2.972,0,0,1,2.13,2.822,3.028,3.028,0,0,1-.562,1.779l-69.986,96.621h53.808c3.965,0,3.965,5.944,0,5.944Zm0,0"
        data-name="Path 816" fill="#fff" id="Path_816" transform="translate(502.965 -145.698)" />
    <path
        d="M-410.618,253.022a2.972,2.972,0,0,1-2.419-1.246,2.972,2.972,0,0,1-.391-2.694l34.834-101.341a2.96,2.96,0,0,1,1.491-1.773,2.959,2.959,0,0,1,2.312-.156,2.966,2.966,0,0,1,1.726,1.548,2.965,2.965,0,0,1,.085,2.317l-34.827,101.335a2.966,2.966,0,0,1-2.81,2.017Zm0,0"
        data-name="Path 817" fill="#fff" id="Path_817" transform="translate(479.77 -145.643)" />
    <path
        d="M-488.988,276.8h-27.628a2.978,2.978,0,0,1-2.63-1.6,2.978,2.978,0,0,1,.189-3.072l42.919-61.9a2.972,2.972,0,0,1,2.334-1.272,2.972,2.972,0,0,1,2.418,1.1l15.547,19.312c2.5,3.091-2.166,6.812-4.645,3.746l-13.043-16.234-37.431,53.983h21.953c3.965,0,3.965,5.944,0,5.944Zm0,0"
        data-name="Path 818" fill="#fff" id="Path_818" transform="translate(519.585 -169.425)" />
    <path
        d="M-250.049,233.883a2.66,2.66,0,0,0,.887-3.621c-.112-.187-11.551-18.731-33.566-7.7-15.484,7.742-20.173,7-20.767,6.868a2.66,2.66,0,0,0-3.34.337,2.653,2.653,0,0,0,0,3.746c.674.674,1.936,1.311,4.3,1.311,3.809,0,10.483-1.655,22.178-7.492,17.557-8.772,26.286,5.095,26.642,5.682a2.654,2.654,0,0,0,3.64.912Zm0,0"
        data-name="Path 819" fill="#fff" id="Path_819" transform="translate(439.96 -173.219)" />
    <path
        d="M-376.642,254.44h4.939v34.565h14.81v4.939H-371.7v7.4q-.106,3.653-3.259,9.578a22.857,22.857,0,0,1-9.135,9.234,25.093,25.093,0,0,1-12.344,3.359h-4.889v-4.889h4.939a20.886,20.886,0,0,0,9.821-2.766,17.782,17.782,0,0,0,7.261-7.38,19.93,19.93,0,0,0,2.666-9.628Z"
        data-name="Path 820" fill="#fff" id="Path_820" transform="translate(475.165 -186.509)" />
    <path
        d="M-346,283.036h9.871V238.6h4.939v6.912h15.06q5.232,0,14.567-3.459a50.1,50.1,0,0,1,17.183-3.5q7.9,0,15.054,7.255a23.976,23.976,0,0,1,7.261,17.532v19.7h14.81v4.939H-346Zm14.81,0H-267V263.287a19.811,19.811,0,0,0-5.875-13.923q-5.825-5.732-12.487-5.532a52.6,52.6,0,0,0-15.678,3.409q-9.041,3.2-14.617,3.209h-15.553Z"
        data-name="Path 821" fill="#fff" id="Path_821" transform="translate(454.381 -180.54)" />
    <path
        d="M-149.4,288.07h-54.32v-4.939h9.871v-9.878q0-17.326,12.294-25.6,6.081-4.2,15.953-4.1,9.778.05,16.2-4.889Zm-39.51-4.939h34.565V246.593a32.994,32.994,0,0,1-12.394,1.973q-7.455-.094-12.394,3.459a22.415,22.415,0,0,0-7.355,8.491q-2.423,4.889-2.423,12.737Z"
        data-name="Path 822" fill="#fff" id="Path_822" transform="translate(400.936 -180.585)" />
    <path d="M-281.2,145.79v31.593h7.842V180H-283.82V145.79Z" data-name="Path 823" fill="#fff"
        id="Path_823" transform="translate(431.024 -145.696)" />
    <path
        d="M-262.052,158.67v26.167H-273.06v-2.616h8.392V158.67Zm-5.975,32.1a2.441,2.441,0,0,1,.787,1.873,2.5,2.5,0,0,1-.787,1.823,2.5,2.5,0,0,1-1.829.78,2.5,2.5,0,0,1-1.873-.78,2.5,2.5,0,0,1-.762-1.829,2.335,2.335,0,0,1,.762-1.873,2.416,2.416,0,0,1,1.873-.755A2.335,2.335,0,0,1-268.028,190.769Zm6.013,0a2.448,2.448,0,0,1,.787,1.873,2.5,2.5,0,0,1-.787,1.829,2.535,2.535,0,0,1-1.873.787,2.441,2.441,0,0,1-1.829-.787,2.454,2.454,0,0,1-.787-1.829,2.4,2.4,0,0,1,.787-1.873,2.385,2.385,0,0,1,1.829-.755,2.416,2.416,0,0,1,1.861.78Z"
        data-name="Path 824" fill="#fff" id="Path_824" transform="translate(426.982 -150.534)" />
    <path
        d="M-254.742,187.5h2.616V211a13.967,13.967,0,0,1-1.73,6.406,12.063,12.063,0,0,1-4.833,4.889,13.331,13.331,0,0,1-6.537,1.779h-2.585v-2.591h2.61a11.128,11.128,0,0,0,5.207-1.461,9.365,9.365,0,0,0,3.84-3.9,10.615,10.615,0,0,0,1.411-5.1Z"
        data-name="Path 825" fill="#fff" id="Path_825" transform="translate(425.01 -161.364)" />
    <path d="M-227.52,145.64v44.436h7.842v2.616H-230.13V145.64Z" data-name="Path 826" fill="#fff"
        id="Path_826" transform="translate(410.857 -145.64)" />
    <path
        d="M-221.59,196.324l10.427-.106a12.687,12.687,0,0,1-4.758-7.03,12.531,12.531,0,0,1,1.311-9.909,13.114,13.114,0,0,1,3.29-3.746,12.874,12.874,0,0,1,4.627-2.3,12.594,12.594,0,0,1,9.884,1.3,12.488,12.488,0,0,1,6.088,7.923,12.487,12.487,0,0,1-1.3,9.878,13.487,13.487,0,0,1-3.428,3.9h13.112V198.9l-39.235.106Zm27.235-5.332a9.921,9.921,0,0,0,1.049-7.867,10.159,10.159,0,0,0-4.814-6.3h0a10.121,10.121,0,0,0-7.842-1.049,10.159,10.159,0,0,0-6.3,4.839,9.99,9.99,0,0,0-1.043,7.867,9.99,9.99,0,0,0,4.833,6.3,10.052,10.052,0,0,0,7.855,1.061,9.99,9.99,0,0,0,6.3-4.833Zm-10.558-27.9a2.5,2.5,0,0,1,.812,1.873,2.591,2.591,0,0,1-.787,1.873,2.535,2.535,0,0,1-1.873.787,2.5,2.5,0,0,1-1.873-.787,2.584,2.584,0,0,1-.762-1.873,2.541,2.541,0,0,1,.787-1.873,2.572,2.572,0,0,1,1.829-.756,2.572,2.572,0,0,1,1.867.755Zm6.587,0a2.541,2.541,0,0,1,.787,1.873,2.585,2.585,0,0,1-.762,1.873,2.535,2.535,0,0,1-1.873.787,2.579,2.579,0,0,1-1.873-.787,2.591,2.591,0,0,1-.787-1.873,2.541,2.541,0,0,1,.787-1.873,2.585,2.585,0,0,1,1.873-.756,2.579,2.579,0,0,1,1.848.755Z"
        data-name="Path 827" fill="#fff" id="Path_827" transform="translate(407.649 -151.913)" />
    <path
        d="M-148.935,181.765a9.99,9.99,0,0,0-7.349,3.059,10.033,10.033,0,0,0-3.053,7.343,10.171,10.171,0,0,0,3.053,7.374,10.5,10.5,0,0,0,7.374,3.084h13.074v2.616H-167.21V202.6h10.458a11.2,11.2,0,0,1-1.436-1.205,12.613,12.613,0,0,1-3.84-9.253,12.575,12.575,0,0,1,3.84-9.222,12.724,12.724,0,0,1,9.253-3.871,12.606,12.606,0,0,1,9.253,3.871,13.049,13.049,0,0,1,2.8,4.152,11.3,11.3,0,0,1,1.049,4.627,4.572,4.572,0,0,1-.212,1.436,2.541,2.541,0,0,1-.862,1.205,2.985,2.985,0,0,1-2.173.368,2.547,2.547,0,0,1-1.8-1.311,2.847,2.847,0,0,1-.387-2.323,2.01,2.01,0,0,1,1.3-1.542,1.786,1.786,0,0,1,.968-.187c.106.037.137-.05.106-.262a4.225,4.225,0,0,0-.318-.887c-.225-.418-.512-.9-.862-1.436a21.39,21.39,0,0,0-1.486-1.961A10.1,10.1,0,0,0-148.935,181.765Z"
        data-name="Path 828" fill="#fff" id="Path_828" transform="translate(387.222 -158.189)" />
</svg>
